<svg xmlns="http://www.w3.org/2000/svg" width="865.76" height="682.89" viewBox="0 0 865.76 682.89"><text transform="translate(432.88 341.45)" font-size="12" font-family="MyriadPro-Regular, Myriad Pro">v1</text><path d="M795.06,366.19C683.92,573.4,512.52,596.13,512.52,596.13a811.65,811.65,0,0,1-83.41,10.39c-1.77.13-3.55.25-5.32.35C246.06,618,144.61,556.9,88.28,496,30.16,433.21,5.42,345.9,24.34,262.44,56.71,119.73,194.45,73.71,194.45,73.71c29.8-11.8,62-16.43,93.07-16.91C370,55.49,444.37,83.29,444.37,83.29a639.65,639.65,0,0,0,66.86,18.94c46.06,10.16,67.93,8,67.93,8,80.93-13.14,136.18-.11,136.18-.11C794.07,126.79,817.45,185.82,822,237.86,825.87,282.3,816.14,326.89,795.06,366.19Z" fill="#ca9adf"/><path d="M795.06,366.19c-99.23,185-246.5,223-276.92,229-3.65.72-5.62,1-5.62,1q-10.89,1.9-21.46,3.5l-.77.11q-32,4.78-61.18,6.78c-1.77.13-3.55.25-5.32.34Q405,608,387.31,608.17h-.79q-16.56.12-32.15-.63c-47.54-2.25-88.49-10.19-123.74-21.82A354.91,354.91,0,0,1,162,554.94c-.32-.16-.63-.35-.95-.55-2.66-1.55-5.3-3.16-7.87-4.77A318.22,318.22,0,0,1,88.28,496C30.16,433.21,5.42,345.9,24.34,262.44,56.71,119.73,194.45,73.71,194.45,73.71c29.8-11.8,62-16.43,93.08-16.91C370,55.49,444.37,83.29,444.37,83.29a639.65,639.65,0,0,0,66.86,18.94c46.06,10.16,67.93,8,67.93,8,80.93-13.14,136.19-.11,136.19-.11,78.72,16.62,102.1,75.65,106.64,127.69C825.87,282.3,816.14,326.89,795.06,366.19Z" fill="#fff" opacity="0.7"/><path d="M729.06,178.33,716.77,350.07l-2,28.64A14.8,14.8,0,0,1,700,392.46H433a13.28,13.28,0,0,1-13.25-14.26l2.15-28.13,12.67-165.83A15.65,15.65,0,0,1,450,169.78l267.59-2.71A11.32,11.32,0,0,1,729.06,178.33Z" fill="#ca9adf"/><path d="M729.06,178.33,716.77,350.07l-2,28.64A14.8,14.8,0,0,1,700,392.46H433a13.28,13.28,0,0,1-13.25-14.26l2.15-28.13,12.67-165.83A15.65,15.65,0,0,1,450,169.78l267.59-2.71A11.32,11.32,0,0,1,729.06,178.33Z" opacity="0.4"/><rect x="423.82" y="582.78" width="17.38" height="13.99" fill="#e1e1e2"/><rect x="433.15" y="582.78" width="8.05" height="13.99" fill="#9ea0a3"/><rect x="481.05" y="582.78" width="17.38" height="13.99" fill="#e1e1e2"/><rect x="490.37" y="582.78" width="8.05" height="13.99" fill="#9ea0a3"/><rect x="660.77" y="582.36" width="17.38" height="13.99" fill="#e1e1e2"/><rect x="670.1" y="582.36" width="8.05" height="13.99" fill="#9ea0a3"/><rect x="712.06" y="582.36" width="17.38" height="13.99" fill="#e1e1e2"/><rect x="721.39" y="582.36" width="8.05" height="13.99" fill="#9ea0a3"/><rect x="411.95" y="467.91" width="241.19" height="116.57" fill="#3f4347"/><rect x="653.14" y="467.49" width="83.08" height="116.78" fill="#2e3135"/><polygon points="598.57 392.46 529.79 392.46 542.95 442.89 611.82 443.12 598.57 392.46" fill="#ca9adf"/><polygon points="598.57 392.46 529.79 392.46 542.95 442.89 611.82 443.12 598.57 392.46" fill="#fff" opacity="0.2"/><rect x="658.23" y="453.71" width="86.47" height="17.38" fill="#9ea0a3"/><polygon points="571.33 481.9 559.47 495.89 506.48 495.89 495.04 481.9 421.7 481.9 421.7 573.03 643.39 573.03 643.39 481.9 571.33 481.9" opacity="0.2"/><path d="M508.18,440.36H574.3a0,0,0,0,1,0,0v13.56a0,0,0,0,1,0,0H508.18a6.78,6.78,0,0,1-6.78-6.78v0a6.78,6.78,0,0,1,6.78-6.78Z" fill="#ca9adf"/><path d="M508.18,440.36H574.3a0,0,0,0,1,0,0v13.56a0,0,0,0,1,0,0H508.18a6.78,6.78,0,0,1-6.78-6.78v0a6.78,6.78,0,0,1,6.78-6.78Z" opacity="0.2"/><path d="M598,392.46l13.14,47.9H574.59a6.8,6.8,0,0,0-6.8,6.8h0a6.8,6.8,0,0,0,6.8,6.79h44.85a7.64,7.64,0,0,0,7.38-9.62l-13.94-51.87Z" fill="#ca9adf"/><path d="M718.06,178.33,705.77,350.07l-2,28.64A14.8,14.8,0,0,1,689,392.46H422a13.28,13.28,0,0,1-13.25-14.26l2.15-28.13,12.67-165.83A15.65,15.65,0,0,1,439,169.78l267.59-2.71A11.32,11.32,0,0,1,718.06,178.33Z" fill="#ca9adf"/><path d="M705.77,350.07l-2,28.64A14.8,14.8,0,0,1,689,392.46H422a13.28,13.28,0,0,1-13.25-14.26l2.15-28.13Z" opacity="0.2"/><circle cx="556.71" cy="371.48" r="6.99" fill="#fff"/><polygon points="426.37 335.66 691.29 335.66 702.74 179.67 439.51 179.67 426.37 335.66" fill="#fff"/><path d="M694.19,112l-1.07,15.15L679.94,313.49a7.89,7.89,0,0,1-7.87,7.33H452.3a7.89,7.89,0,0,1-7.87-8.52l14.92-185.19,1.3-16.13a6.43,6.43,0,0,1,6.41-5.91H687.78A6.42,6.42,0,0,1,694.19,112Z" fill="#ebebeb"/><path d="M694.19,112l-1.07,15.15H459.35l1.3-16.13a6.43,6.43,0,0,1,6.41-5.91H687.78A6.42,6.42,0,0,1,694.19,112Z" fill="#080628"/><rect x="471.3" y="112.27" width="97.92" height="8.05" rx="4.03" fill="#fff" opacity="0.4"/><circle cx="641.7" cy="116.51" r="3.39" fill="#fff" opacity="0.4"/><circle cx="658.23" cy="116.51" r="3.39" fill="#fff" opacity="0.4"/><circle cx="674.34" cy="116.51" r="3.39" fill="#fff" opacity="0.4"/><path d="M669.46,144.28H645.92a.21.21,0,0,1-.21-.22.21.21,0,0,1,.21-.21h23.54a.22.22,0,1,1,0,.43Z" fill="#ccc"/><path d="M617.64,144.28H593.1a.22.22,0,1,1,0-.43h24.54a.22.22,0,0,1,0,.43Z" fill="#ccc"/><path d="M565.65,144.28h-25a.21.21,0,0,1-.21-.22.21.21,0,0,1,.21-.21h25a.22.22,0,0,1,0,.43Z" fill="#ccc"/><path d="M512.83,144.28H488.25a.22.22,0,0,1,0-.43h24.58a.22.22,0,0,1,0,.43Z" fill="#ccc"/><path d="M652.51,302.81H629a.22.22,0,0,1,0-.43h23.55a.21.21,0,0,1,.21.22A.21.21,0,0,1,652.51,302.81Z" fill="#ccc"/><path d="M600.68,302.81H576.14a.21.21,0,0,1-.21-.21.21.21,0,0,1,.21-.22h24.54a.21.21,0,0,1,.21.22A.21.21,0,0,1,600.68,302.81Z" fill="#ccc"/><path d="M548.69,302.81h-25a.22.22,0,1,1,0-.43h25a.21.21,0,0,1,.21.22A.21.21,0,0,1,548.69,302.81Z" fill="#ccc"/><path d="M495.87,302.81H471.3a.21.21,0,0,1-.21-.21.21.21,0,0,1,.21-.22h24.57a.21.21,0,0,1,.21.22A.21.21,0,0,1,495.87,302.81Z" fill="#ccc"/><path d="M668.4,160.38H634.27a.21.21,0,0,1,0-.42H668.4a.21.21,0,1,1,0,.42Z" fill="#ccc"/><path d="M616,160.38h-34.1a.21.21,0,0,1,0-.42H616a.21.21,0,0,1,0,.42Z" fill="#ccc"/><path d="M564,160.38H528.21a.21.21,0,0,1,0-.42H564a.21.21,0,1,1,0,.42Z" fill="#ccc"/><path d="M512,160.38H477.23a.21.21,0,0,1,0-.42H512a.21.21,0,1,1,0,.42Z" fill="#ccc"/><path d="M656.54,287.12H622.4a.21.21,0,0,1-.21-.21.22.22,0,0,1,.21-.21h34.14a.22.22,0,0,1,.21.21A.21.21,0,0,1,656.54,287.12Z" fill="#ccc"/><path d="M604.1,287.12H570a.21.21,0,0,1-.21-.21.21.21,0,0,1,.21-.21h34.1a.22.22,0,0,1,.22.21A.21.21,0,0,1,604.1,287.12Z" fill="#ccc"/><path d="M552.11,287.12H516.35a.21.21,0,0,1-.22-.21.22.22,0,0,1,.22-.21h35.76a.22.22,0,0,1,.22.21A.21.21,0,0,1,552.11,287.12Z" fill="#ccc"/><path d="M500.13,287.12H465.36a.21.21,0,0,1-.21-.21.22.22,0,0,1,.21-.21h34.77a.22.22,0,0,1,.21.21A.21.21,0,0,1,500.13,287.12Z" fill="#ccc"/><path d="M509.87,192.6H475.11a.22.22,0,0,1,0-.43h34.76a.22.22,0,1,1,0,.43Z" fill="#ccc"/><path d="M499.91,224h-29a.22.22,0,0,1,0-.43h29a.21.21,0,0,1,.21.21A.21.21,0,0,1,499.91,224Z" fill="#ccc"/><path d="M502.88,254.91h-35a.22.22,0,0,1-.22-.21.21.21,0,0,1,.22-.21h35a.21.21,0,0,1,.21.21A.22.22,0,0,1,502.88,254.91Z" fill="#ccc"/><path d="M659.29,255.33h-35a.21.21,0,0,1,0-.42h35a.21.21,0,1,1,0,.42Z" fill="#ccc"/><path d="M499.49,271.86H476a.21.21,0,0,1-.21-.21.21.21,0,0,1,.21-.21h23.53a.22.22,0,0,1,.21.21A.21.21,0,0,1,499.49,271.86Z" fill="#ccc"/><path d="M656.75,271.44H633.22a.21.21,0,0,1,0-.42h23.53a.21.21,0,0,1,0,.42Z" fill="#ccc"/><path d="M660.14,224h-29a.22.22,0,0,1,0-.43h29a.21.21,0,0,1,.21.21A.21.21,0,0,1,660.14,224Z" fill="#ccc"/><path d="M664.59,192.6H629.83a.21.21,0,0,1-.21-.21.21.21,0,0,1,.21-.22h34.76a.21.21,0,0,1,.21.22A.21.21,0,0,1,664.59,192.6Z" fill="#ccc"/><path d="M663.32,208.28H638.94a.21.21,0,0,1,0-.42h24.38a.21.21,0,0,1,0,.42Z" fill="#ccc"/><path d="M506.48,207.86H482.11a.22.22,0,1,1,0-.43h24.37a.22.22,0,1,1,0,.43Z" fill="#ccc"/><path d="M503.52,239.65H479.14a.21.21,0,0,1-.21-.21.21.21,0,0,1,.21-.21h24.38a.21.21,0,0,1,.21.21A.22.22,0,0,1,503.52,239.65Z" fill="#ccc"/><path d="M660.78,240.07H636.4a.21.21,0,1,1,0-.42h24.38a.21.21,0,1,1,0,.42Z" fill="#ccc"/><path d="M510.29,176.49H485.71a.21.21,0,1,1,0-.42h24.58a.21.21,0,1,1,0,.42Z" fill="#ccc"/><polygon points="624.32 224.6 592.11 273.77 534.88 273.77 533.31 270.73 508.6 222.91 541.24 173.31 594.48 173.7 598.89 173.74 624.32 224.6" fill="#ca9adf"/><polygon points="624.32 224.6 592.11 273.77 534.88 273.77 533.31 270.73 584.9 270.73 616.27 220.79 594.48 173.7 598.89 173.74 624.32 224.6" opacity="0.2"/><path d="M847.66,213.56l-.94,11L841.32,288a10.42,10.42,0,0,1-10.38,9.52H696.71a7.66,7.66,0,0,1-7.63-8.35l5.84-64.56.83-9.16a7.67,7.67,0,0,1,7.61-7l139.26-.4A5.05,5.05,0,0,1,847.66,213.56Z" fill="#ebebeb"/><path d="M847.66,213.56l-.94,11H694.92l.83-9.16a7.67,7.67,0,0,1,7.61-7l139.26-.4A5.05,5.05,0,0,1,847.66,213.56Z" fill="#080628"/><rect x="768.44" y="212.73" width="69.94" height="7.63" rx="3.81" fill="#fff" opacity="0.4"/><circle cx="707.4" cy="216.12" r="3.39" fill="#fff" opacity="0.4"/><circle cx="720.54" cy="216.55" r="3.39" fill="#fff" opacity="0.4"/><circle cx="731.99" cy="216.55" r="3.39" fill="#fff" opacity="0.4"/><path d="M744.05,273.77H701.23a1.55,1.55,0,0,1-1.54-1.73,1.59,1.59,0,0,1,.31-.77l23.83-30.9.06-.07a1.55,1.55,0,0,1,2.49.21l19,30.9A1.55,1.55,0,0,1,744.05,273.77Z" fill="#ca9adf"/><path d="M744.05,273.77H701.23a1.55,1.55,0,0,1-1.54-1.73l39.91-.77a1.26,1.26,0,0,0,1.07-1.89L723.89,240.3a1.55,1.55,0,0,1,2.49.21l19,30.9A1.55,1.55,0,0,1,744.05,273.77Z" opacity="0.2"/><path d="M474.26,165.59l-2.43,23.74a5.77,5.77,0,0,1-5.74,5.18H331.59a4,4,0,0,1-4-4.4l0-.26,2.58-26.08a4,4,0,0,1,4-3.6H468.84A5.42,5.42,0,0,1,474.26,165.59Z" fill="#080628"/><path d="M474.26,165.59l-2.43,23.74a5.77,5.77,0,0,1-5.74,5.18H331.6a4,4,0,0,1-4-4.4l0-.26,136.26.42a.68.68,0,0,0,.68-.62l2.58-29.48h1.69A5.42,5.42,0,0,1,474.26,165.59Z" opacity="0.2"/><path d="M354.93,174.09h0a.21.21,0,0,1-.2-.23l.19-3.37A4,4,0,0,0,347,170l-.19,3.79a.23.23,0,0,1-.22.21.21.21,0,0,1-.2-.23l.19-3.79a4.38,4.38,0,0,1,8.74.5l-.2,3.37A.21.21,0,0,1,354.93,174.09Z" fill="#fff"/><path d="M342.86,173.74l-.85,11h15.26l.85-11Zm7.82,5.88-.07,1.76-.85,0,.07-1.77a1.47,1.47,0,0,1-1-1.45,1.49,1.49,0,1,1,1.85,1.49Z" fill="#fff"/><rect x="403.26" y="453.71" width="255.18" height="17.38" fill="#e1e1e2"/><path d="M532.7,214.19v-4.4l10.09-14.43h6.1v14.11h2.61v4.72h-2.61v4.15h-5.46v-4.15Zm11.11-12.83-5.36,8.11h5.36Z" fill="#fff"/><path d="M556.31,197.72c1.41-2.11,3.7-3.16,6.85-3.16s5.43,1.05,6.84,3.16,2.13,5,2.13,8.65-.71,6.61-2.13,8.72-3.69,3.16-6.84,3.16-5.44-1.05-6.85-3.16-2.12-5-2.12-8.72S554.89,199.83,556.31,197.72Zm9.75,3.69a3.3,3.3,0,0,0-5.81,0,13.71,13.71,0,0,0-.7,5,20.87,20.87,0,0,0,.25,3.59,4.58,4.58,0,0,0,1,2.3,3.49,3.49,0,0,0,4.63,0,4.58,4.58,0,0,0,1-2.3,20.87,20.87,0,0,0,.25-3.59A13.71,13.71,0,0,0,566.06,201.41Z" fill="#fff"/><path d="M575.13,214.19v-4.4l10.09-14.43h6.09v14.11h2.62v4.72h-2.62v4.15h-5.46v-4.15Zm11.11-12.83-5.37,8.11h5.37Z" fill="#fff"/><path d="M527.71,219.76v10.37h9.38v.58h-9.38v10.37h10.34v.58h-11V219.18h11v.58Z" fill="#fff"/><path d="M551.71,224v.7h-.28a7,7,0,0,0-4.62,1.58c-1.26,1.05-1.9,2.75-1.9,5.09v10.25h-.64V224.42h.64v4.18Q545.93,224,551.71,224Z" fill="#fff"/><path d="M564.42,224v.7h-.29a6.92,6.92,0,0,0-4.61,1.58q-1.9,1.58-1.9,5.09v10.25H557V224.42h.64v4.18Q558.64,224,564.42,224Z" fill="#fff"/><path d="M573,240.81a7.6,7.6,0,0,1-3-3.06,10.63,10.63,0,0,1,0-9.42,7.69,7.69,0,0,1,3-3.07,9.29,9.29,0,0,1,8.62,0,7.71,7.71,0,0,1,3,3.07,10.81,10.81,0,0,1,0,9.42,7.62,7.62,0,0,1-3,3.06,9.22,9.22,0,0,1-8.62,0Zm8.14-.41a7.1,7.1,0,0,0,2.84-2.76,10.34,10.34,0,0,0,0-9.2,7.1,7.1,0,0,0-2.84-2.76,8.56,8.56,0,0,0-7.68,0,7,7,0,0,0-2.86,2.78,10.25,10.25,0,0,0,0,9.16,7.07,7.07,0,0,0,2.86,2.78,8.56,8.56,0,0,0,7.68,0Z" fill="#fff"/><path d="M599.7,224v.7h-.29a7,7,0,0,0-4.62,1.58q-1.89,1.58-1.89,5.09v10.25h-.64V224.42h.64v4.18C593.58,225.56,595.84,224,599.7,224Z" fill="#fff"/><path d="M756,245.25v11.24H766.2v.62H756v11.25h11.21V269H755.33V244.62h11.91v.63Z" fill="#ca9adf"/><path d="M780,249.88v.76h-.31a7.52,7.52,0,0,0-5,1.72c-1.38,1.14-2.06,3-2.06,5.51V269h-.69V250.3h.69v4.53Q773.71,249.88,780,249.88Z" fill="#ca9adf"/><path d="M791.66,249.88v.76h-.31a7.52,7.52,0,0,0-5,1.72q-2.05,1.71-2.06,5.51V269h-.69V250.3h.69v4.53Q785.4,249.88,791.66,249.88Z" fill="#ca9adf"/><path d="M798.89,268.06a8.36,8.36,0,0,1-3.27-3.32,11.52,11.52,0,0,1,0-10.2,8.38,8.38,0,0,1,3.27-3.33,10.06,10.06,0,0,1,9.34,0,8.23,8.23,0,0,1,3.26,3.33,11.7,11.7,0,0,1,0,10.2,8.21,8.21,0,0,1-3.26,3.32,10,10,0,0,1-9.34,0Zm8.82-.45a7.5,7.5,0,0,0,3.08-3,11.1,11.1,0,0,0,0-10,7.59,7.59,0,0,0-3.08-3,8.94,8.94,0,0,0-4.15-1,9.08,9.08,0,0,0-4.17,1,7.57,7.57,0,0,0-3.09,3,11,11,0,0,0,0,9.93,7.45,7.45,0,0,0,3.09,3,9,9,0,0,0,4.17,1A8.83,8.83,0,0,0,807.71,267.61Z" fill="#ca9adf"/><path d="M825.74,249.88v.76h-.31a7.52,7.52,0,0,0-5,1.72q-2.05,1.71-2.06,5.51V269h-.69V250.3h.69v4.53Q819.48,249.88,825.74,249.88Z" fill="#ca9adf"/><path d="M829.7,268.79a1,1,0,0,1,0-1.35.92.92,0,0,1,1.28,0,1,1,0,0,1,0,1.35.92.92,0,0,1-1.28,0Zm1-24.17-.11,18.93H830l-.1-18.93Z" fill="#ca9adf"/><path d="M721.78,267.94a2,2,0,0,1-.61-1.51,2.07,2.07,0,0,1,.61-1.52,2.11,2.11,0,0,1,1.52-.61,2,2,0,0,1,1.48.61,2.07,2.07,0,0,1,.62,1.52,2,2,0,0,1-.62,1.51,2,2,0,0,1-1.48.62A2.07,2.07,0,0,1,721.78,267.94ZM725,248.1l-.38,14.13h-2.77l-.38-14.13Z" fill="#fff"/><path d="M376,176.77a3,3,0,0,1,.52,2.28A4,4,0,0,1,375,181.7a5.49,5.49,0,0,1-3.49,1h-4.07l1.95-13.77h4.07a4.06,4.06,0,0,1,3,.93,2.78,2.78,0,0,1,.68,2.44,3.61,3.61,0,0,1-1.06,2.19,4,4,0,0,1-2,1.05A3,3,0,0,1,376,176.77Zm-7.12-1.41h3.79a4.49,4.49,0,0,0,2.83-.8,3.31,3.31,0,0,0,1.25-2.24,2.4,2.4,0,0,0-.62-2.17,3.77,3.77,0,0,0-2.73-.81h-3.67Zm5.82,6.09a3.46,3.46,0,0,0,1.42-2.4,2.57,2.57,0,0,0-.77-2.4,4.19,4.19,0,0,0-2.9-.89h-3.62l-.93,6.57h3.67A5.14,5.14,0,0,0,374.74,181.45Z" fill="#fff"/><path d="M383.63,168.26l-2.05,14.47h-.4l2.05-14.47Z" fill="#fff"/><path d="M389.59,182.23a4,4,0,0,1-1.64-1.88,5.42,5.42,0,0,1-.28-2.89,6.32,6.32,0,0,1,1.1-2.88,5.85,5.85,0,0,1,2.17-1.88,6.24,6.24,0,0,1,2.81-.65,5.29,5.29,0,0,1,2.63.66,3.94,3.94,0,0,1,1.63,1.88,5.43,5.43,0,0,1,.27,2.89,6.42,6.42,0,0,1-1.09,2.88,5.74,5.74,0,0,1-2.16,1.88,6.24,6.24,0,0,1-2.81.65A5.29,5.29,0,0,1,389.59,182.23Zm5.18-.25a5.36,5.36,0,0,0,2-1.69,6,6,0,0,0,1.08-2.81,5,5,0,0,0-.29-2.82A3.5,3.5,0,0,0,396,173a4.76,4.76,0,0,0-2.34-.56,5.77,5.77,0,0,0-2.51.55,5.42,5.42,0,0,0-2,1.7,6.1,6.1,0,0,0-1.08,2.8,5,5,0,0,0,.29,2.81,3.55,3.55,0,0,0,1.56,1.7,4.8,4.8,0,0,0,2.35.56A5.73,5.73,0,0,0,394.77,182Z" fill="#fff"/><path d="M404.2,174.59a5.69,5.69,0,0,1,2.13-1.87,6.09,6.09,0,0,1,2.79-.64,4.75,4.75,0,0,1,3.25,1,3.55,3.55,0,0,1,1.22,2.69h-.4a3.16,3.16,0,0,0-1.16-2.47,4.6,4.6,0,0,0-3-.9,5.72,5.72,0,0,0-2.48.55,5.24,5.24,0,0,0-2,1.69,6.23,6.23,0,0,0-1.06,2.82,5,5,0,0,0,.27,2.81,3.47,3.47,0,0,0,1.52,1.7,4.81,4.81,0,0,0,2.33.56,5.74,5.74,0,0,0,3.21-.9,4.34,4.34,0,0,0,1.86-2.46h.4a5,5,0,0,1-2,2.69,6.05,6.05,0,0,1-3.54,1,5.05,5.05,0,0,1-2.61-.65,3.8,3.8,0,0,1-1.6-1.88,5.55,5.55,0,0,1-.26-2.89A6.66,6.66,0,0,1,404.2,174.59Z" fill="#fff"/><path d="M423.36,182.8l-4.31-5-.7,4.95h-.41L420,168.32h.4l-1.23,8.74,5.59-4.82h.59l-6.1,5.23,4.69,5.33Z" fill="#fff"/><path d="M436.29,181.7a4.34,4.34,0,0,0,1.86-2.46h.4a5,5,0,0,1-2,2.69,6,6,0,0,1-3.54,1,5.08,5.08,0,0,1-2.61-.65,3.73,3.73,0,0,1-1.59-1.88,5.44,5.44,0,0,1-.27-2.89,6.79,6.79,0,0,1,1.08-2.9,5.69,5.69,0,0,1,2.13-1.87,6.15,6.15,0,0,1,2.79-.64,4.82,4.82,0,0,1,2.63.66,3.6,3.6,0,0,1,1.46,1.69,4.07,4.07,0,0,1,.27,2.19c-.07.47-.13.82-.17,1.06l-9.81,0a4.81,4.81,0,0,0,.31,2.72,3.54,3.54,0,0,0,1.53,1.64,4.82,4.82,0,0,0,2.3.54A5.74,5.74,0,0,0,436.29,181.7Zm-4.23-8.7a5.19,5.19,0,0,0-2,1.63,5.78,5.78,0,0,0-1.08,2.72l9.47,0a4.5,4.5,0,0,0-.15-2.72A3.27,3.27,0,0,0,436.8,173a4.81,4.81,0,0,0-2.29-.54A5.9,5.9,0,0,0,432.06,173Z" fill="#fff"/><path d="M444.7,174.67a5.61,5.61,0,0,1,2.14-1.88,6.35,6.35,0,0,1,2.85-.65,4.68,4.68,0,0,1,3,1,3.82,3.82,0,0,1,1.4,2.42l1-7.13h.38l-2,14.47h-.38l.45-3.24a5.54,5.54,0,0,1-2.08,2.43,5.81,5.81,0,0,1-3.31.94,5.18,5.18,0,0,1-2.67-.66,3.65,3.65,0,0,1-1.6-1.88,5.49,5.49,0,0,1-.26-2.88A6.52,6.52,0,0,1,444.7,174.67Zm8.88.25a3.66,3.66,0,0,0-1.5-1.79,4.6,4.6,0,0,0-2.44-.64,5.71,5.71,0,0,0-2.67.61,5.09,5.09,0,0,0-2,1.74,6.46,6.46,0,0,0-1,2.71,5.41,5.41,0,0,0,.22,2.71,3.41,3.41,0,0,0,1.46,1.75,4.73,4.73,0,0,0,2.5.61,5.6,5.6,0,0,0,2.62-.63,5.5,5.5,0,0,0,2-1.78,6,6,0,0,0,1-2.64A5,5,0,0,0,453.58,174.92Z" fill="#fff"/><polygon points="141.17 595.11 113.55 595.11 113.55 449.52 109.52 449.52 109.52 595.11 83.05 595.11 79.02 595.11 79.02 598.56 79.02 607.19 83.05 607.19 83.05 598.56 141.17 598.56 141.17 607.19 145.2 607.19 145.2 598.56 145.2 595.11 141.17 595.11" fill="#2e3135"/><circle cx="143.18" cy="614.39" r="9.49" fill="#3f4347"/><circle cx="143.18" cy="614.39" r="6.62" fill="#fff"/><path d="M245.9,558.28,258,611.8s5.18,2.3,19.57,2.87c0,0-3.45-7.48,1.72-10.93l-10.35-48.91Z" fill="#f9b499"/><path d="M258.93,622.64,258,611.8a95.89,95.89,0,0,0,19.57,2.87s-4-7.48,1.72-10.93c0,0,3.53-3.52,9,2.92a22,22,0,0,0,7.94,5.82l25.54,11.26a.67.67,0,0,1-.27,1.29h-60A2.6,2.6,0,0,1,258.93,622.64Z" fill="#ca9adf"/><path d="M152.68,559.43l-5.76,55.24h17.84s.58-9.2,6.91-10.35l5.18-55.82Z" fill="#f9b499"/><path d="M205.93,623.71c-6.79-3-22.67-10.58-28-18.55a4.65,4.65,0,0,0-6.34-1.42c-3.33,2.09-7.15,5.66-6.82,10.93H146.92l-2.64,8.82a2,2,0,0,0,2,2.64l59.37-1A.72.72,0,0,0,205.93,623.71Z" fill="#ca9adf"/><circle cx="81.03" cy="614.39" r="9.49" fill="#3f4347"/><circle cx="81.03" cy="614.39" r="6.62" fill="#fff"/><path d="M73.55,427.08h79.7a0,0,0,0,1,0,0v24.74a0,0,0,0,1,0,0H73.55a12.37,12.37,0,0,1-12.37-12.37v0a12.37,12.37,0,0,1,12.37-12.37Z" fill="#3f4347"/><path d="M104.34,364.36s-57,77.11,50.06,62.14c0,0-25.89,66.76-16.68,137H285S273.45,432.28,255.16,388a19.43,19.43,0,0,0-14.28-11.62l-70.94-13.78Z" fill="#080628"/><polygon points="85.92 625.03 92.83 625.03 174.54 377.02 167.06 376.44 85.92 625.03" fill="#9ea0a3"/><polygon points="403.57 623.88 396.67 623.88 314.95 375.87 322.43 375.29 403.57 623.88" fill="#9ea0a3"/><path d="M309.77,275.16s9.79-4.6,4.61,3.46c0,0,4.6,1.15-4,4.6,0,0-8.7,1.9-13.56,5.84l-2-7.57Z" fill="#f7a48b"/><path d="M206.19,309.69l11.51,16.69,60.42-40.86s9.21-6.33,15.54-8.06l20.52-8.94a1.92,1.92,0,0,1,2.59,1.16h0a1.91,1.91,0,0,1-.82,2.24c-5.24,3.21-24.23,15.37-18.26,19.35,0,0,4.09,1.37,9-1.56a1.05,1.05,0,0,1,1.48,1.39c-1.05,2-4,4.85-11.66,8.23,0,0-31.08,13.81-49.49,37.41,0,0-27.62,35.67-42.58,17.83l-25.11-25.28,1.51-2.34Z" fill="#f9b499"/><path d="M206.19,309.69l-20.91,25.52-5.92-5.92s.36-.61,1.51-2.34Z" fill="#f7a48b"/><path d="M122.75,272.86s-31.07.58-43.15,25.9l-12.66,27,37.4,4.61v33.95l65.6-1.73,6.33-29.92a12.93,12.93,0,0,0,4.6-5.76l25.32-17.26s-12.08-30.5-46-35.1l-30.5-1.73Z" fill="#ca9adf"/><g opacity="0.2"><path d="M110.09,301.92a.28.28,0,0,1-.28-.27c-1.12-16.8-18-17.77-18.15-17.77a.29.29,0,0,1,0-.58c.18,0,17.54,1,18.69,18.31a.29.29,0,0,1-.27.31Z"/></g><g opacity="0.2"><path d="M104.34,330.69h-.08a.29.29,0,0,1-.2-.36l6.91-23a.29.29,0,1,1,.55.17l-6.9,23A.3.3,0,0,1,104.34,330.69Z"/></g><g opacity="0.2"><path d="M106.64,321.49h0L81.86,318a.29.29,0,0,1-.25-.32.29.29,0,0,1,.33-.25l24.74,3.45a.29.29,0,0,1,0,.58Z"/></g><g opacity="0.2"><path d="M105.85,326.4h0l-19.36-3.19a.29.29,0,0,1-.23-.33.28.28,0,0,1,.33-.24l19.35,3.19a.29.29,0,0,1,.24.33A.3.3,0,0,1,105.85,326.4Z"/></g><g opacity="0.2"><path d="M150.91,300.91c-11.32,0-20.7-5.85-20.83-5.94a.29.29,0,0,1,.31-.49c.19.13,19,11.87,35.37,1.73a.3.3,0,0,1,.4.09.29.29,0,0,1-.1.4A28.35,28.35,0,0,1,150.91,300.91Z"/></g><g opacity="0.2"><path d="M149.8,322.06a.29.29,0,0,1-.29-.28L149,300.43a.29.29,0,0,1,.28-.3.28.28,0,0,1,.29.28l.54,21.36a.28.28,0,0,1-.28.29Z"/></g><g opacity="0.2"><path d="M173.39,334.72a.27.27,0,0,1-.25-.15.28.28,0,0,1,.12-.39,15.09,15.09,0,0,0,7.75-9.42c3.43-12-6-28.57-6.14-28.74a.29.29,0,0,1,.1-.39.3.3,0,0,1,.4.1c.1.17,9.69,16.93,6.19,29.18a15.62,15.62,0,0,1-8,9.78A.35.35,0,0,1,173.39,334.72Z"/></g><g opacity="0.2"><path d="M182.34,314.29a.26.26,0,0,1-.24-.13.28.28,0,0,1,.09-.4l16.94-10.64a.28.28,0,0,1,.4.09.27.27,0,0,1-.09.39l-16.95,10.65A.28.28,0,0,1,182.34,314.29Z"/></g><g opacity="0.2"><path d="M181.75,319.31a.26.26,0,0,1-.24-.13.28.28,0,0,1,.08-.39l15.24-9.92a.28.28,0,0,1,.4.09.28.28,0,0,1-.09.39l-15.24,9.92A.26.26,0,0,1,181.75,319.31Z"/></g><polygon points="262.01 306.81 234.39 365.51 186.26 364.81 186.26 373.36 337.39 373.36 369.62 307.96 262.01 306.81" fill="#ca9adf"/><ellipse cx="301.66" cy="339.96" rx="9.65" ry="6.33" transform="translate(-152.04 312.88) rotate(-45)" fill="none" stroke="#fff" stroke-miterlimit="10"/><line x1="217.7" y1="326.38" x2="214.82" y2="330.41" fill="none" stroke="#f7a48b" stroke-linecap="round" stroke-linejoin="round"/><rect x="50.82" y="371.84" width="389" height="7.48" fill="#e1e1e2"/><path d="M129.66,253.3v19.56h-6.91s2.88,23.59,27.63,23c0,0,23-.58,9.78-21.29l-1.15-15-26.47-10.36Z" fill="#f9b499"/><path d="M158.06,245.53l2.1,28.92s-11.89,4.46-28.49-22.25Z" fill="#f7a48b"/><circle cx="115.85" cy="215.32" r="11.22" fill="#080628"/><circle cx="126.49" cy="223.66" r="11.22" fill="#ca9adf"/><path d="M161.15,263.18c-9.13,5.6-23.14-.65-31.28-13.94a40.26,40.26,0,0,1-2.14-4c-3.81-8.07-4.48-16.45-2.13-22.67a14.73,14.73,0,0,1,6-7.57c4.3-2.64,9.69-2.65,15.05-.52a29.12,29.12,0,0,1,6.56,3.72A38.41,38.41,0,0,1,162.91,229C171.06,242.27,170.27,257.58,161.15,263.18Z" fill="#f9b499"/><path d="M153.24,218.24c-.25,1.1-5.36,22.82-23.87,27.86l-1.64-.82c-3.81-8.07-4.48-16.45-2.13-22.67l21.08-8.09A29.12,29.12,0,0,1,153.24,218.24Z" fill="#f7a48b"/><path d="M153.25,218.19s-9.78,20.33-27.33,22.54l3.74,12.57v19.56s-23.88-1.44-41.11,13.79c0,0-.9-4.58,7.16-10.91,0,0,2.3-4-2.3-8.06,0,0-2.88-6.33,3.45-12.08,0,0,16.69-10.94,20.14-29.93,0,0,0-17.83,31.65-14.38,0,0,9.21-4,15.54,12.08,0,0,4,13.24,11.5,19,0,0,13.82,7.48,9.21,20.14a7.63,7.63,0,0,0,1.15,7.48s13.31,12.63,2.34,16.67c0,0-12.7-10.34-28.23-12.06l-.87-10.65s9.21-3.45,9.25-16.52A39.16,39.16,0,0,0,153.25,218.19Z" fill="#080628"/><ellipse cx="127.65" cy="247.83" rx="5.47" ry="7.77" transform="translate(-113.73 108.36) rotate(-32.73)" fill="#f9b499"/><path d="M68.66,325.8,58.3,356.3s-5.17,13.81,13.24,17.26l118,1.73s12.08,1.73,2.87-6.91c0,0-16.69-13.23-32.8-15s-1.72-.57-1.72-.57l-63.3-6.91,8.32-15.4Z" fill="#f9b499"/><path d="M189.51,375.58a.29.29,0,0,1-.29-.23c-1.1-5-12.34-8.38-12.46-8.42a.27.27,0,0,1-.19-.35.29.29,0,0,1,.36-.2c.47.15,11.68,3.56,12.86,8.85a.29.29,0,0,1-.22.34Z" fill="#f7a48b"/><path d="M193.56,375.42h-.06a.29.29,0,0,1-.22-.34c1.11-5.59-14.64-11-14.8-11a.28.28,0,1,1,.18-.54c.67.22,16.4,5.6,15.18,11.68A.27.27,0,0,1,193.56,375.42Z" fill="#f7a48b"/><path d="M187.59,222.68l1.83-1.6c7.53-6.59,12-15.11,14.45-21.34h-5a13.64,13.64,0,0,1-13.62-13.62V116.38a13.64,13.64,0,0,1,13.62-13.63h70.54a13.64,13.64,0,0,1,13.62,13.63v69.74a13.64,13.64,0,0,1-13.62,13.62h-46c-11.22,14.83-33.35,22.12-33.57,22.19ZM198.9,103.75a12.64,12.64,0,0,0-12.62,12.63v69.74a12.63,12.63,0,0,0,12.62,12.62h6.42l-.26.68a58.53,58.53,0,0,1-13.16,20.72c6-2.3,22-9.32,30.92-21.2l.15-.2h46.47a12.63,12.63,0,0,0,12.62-12.62V116.38a12.64,12.64,0,0,0-12.62-12.63Z" fill="#ca9adf"/><rect x="196.09" y="112.77" width="76.95" height="76.95" rx="10.97" fill="#ca9adf"/><g opacity="0.5"><path d="M230.64,158.09a7.33,7.33,0,0,1,1.05-4.07,34.05,34.05,0,0,1,4.56-5l1.26-1.26a30.35,30.35,0,0,0,3.23-3.37,3.9,3.9,0,0,0,.77-2.39,4.88,4.88,0,0,0-1.72-4,7.24,7.24,0,0,0-4.8-1.44q-5.4,0-9.68,6l-7.23-5.19a22.22,22.22,0,0,1,7.51-7,19.33,19.33,0,0,1,9.54-2.42q7.29,0,11.61,3.82t4.31,10.49a11,11,0,0,1-.73,4.18,14,14,0,0,1-2.32,3.65c-1.05,1.24-2.68,2.91-4.87,5a19.26,19.26,0,0,0-2.91,3.26,5.65,5.65,0,0,0-.6,2.85h-9Zm.59,15a4.83,4.83,0,0,1-1.57-3.62,4.77,4.77,0,0,1,1.57-3.64,5.5,5.5,0,0,1,3.9-1.48,5.37,5.37,0,0,1,3.82,1.48,4.78,4.78,0,0,1,1.58,3.64,4.84,4.84,0,0,1-1.58,3.62,5.36,5.36,0,0,1-3.82,1.51A5.48,5.48,0,0,1,231.23,173.07Z" fill="#fff"/></g><path d="M387.67,545.86a325.84,325.84,0,0,0-.47-34.66,442.28,442.28,0,0,0-10.86-70.62c-3-13.06-6.76-25.92-10.65-38.74-.12-.4-.72-.28-.62.12,12,45.24,21.87,91.93,21.16,139-.19,13.23-1.71,26.1-3,39.17,0,.36.54.49.62.14C386.4,569.08,387.21,557.35,387.67,545.86Z" fill="#ca9adf"/><path d="M365.07,402s-18.21,46.2-14.14,57.06,12.49,13.22,12.49,13.22-11.14,15.87-3.36,30.82,25.13,14.21,26.22,31.11C386.28,534.17,387.25,463.47,365.07,402Z" fill="#ca9adf"/><path d="M384.31,505a.36.36,0,0,0,0-.25,423.13,423.13,0,0,0-17.65-92.94c0-.08-.17,0-.15,0q5.4,20.28,9.56,40.76a20.13,20.13,0,0,0-8.68-4.84c-.07,0-.1.07,0,.09a23,23,0,0,1,9,6c.54,2.65,1.06,5.29,1.55,8-4.06-4.54-9.71-6.79-15.35-8.94-.08,0-.12.1,0,.12,5.88,2.4,11.73,5.48,15.72,10.58q2.07,11.51,3.65,23.08a22,22,0,0,0-10.86-6.22c-.12,0-.2.16-.06.2a22.92,22.92,0,0,1,11,7.05h.08c.35,2.71.7,5.44,1,8.15a28.14,28.14,0,0,0-7.61-4.59c-.06,0-.1.09,0,.12a26,26,0,0,1,7.62,5.05h.11c.29,2.64.59,5.18.85,7.77a36.91,36.91,0,0,0-15.43-11,.09.09,0,0,0-.12.05.09.09,0,0,0,.06.13,40.24,40.24,0,0,1,15.2,11.72.39.39,0,0,0,.39.12c.39,4,.75,7.93,1,11.9,0,0,.09.06.09,0C384.92,513.14,384.71,509.06,384.31,505Z" fill="#3f4347"/><path d="M369.69,443.16a22.83,22.83,0,0,0-10.94-3.41.07.07,0,0,0-.07.07.07.07,0,0,0,.07.06,44,44,0,0,1,10.82,3.53C369.7,443.48,369.82,443.25,369.69,443.16Z" fill="#3f4347"/><path d="M371.9,492.08a23.15,23.15,0,0,0-8.22-2.82c-.1,0-.1.15,0,.16a30.74,30.74,0,0,1,8.12,2.84C371.91,492.32,372,492.13,371.9,492.08Z" fill="#3f4347"/><path d="M435.52,459.82a124.4,124.4,0,0,0-21.07,18.41,75.7,75.7,0,0,0-14.77,25.06,187.09,187.09,0,0,0-11,59.93,144.57,144.57,0,0,0,3.24,33.7.32.32,0,0,0,.37.26.33.33,0,0,0,.26-.38,188.28,188.28,0,0,1,.33-58.9c3.12-19.12,8-39.91,20.18-55.45,6.61-8.45,14.87-15.1,23-22C436.51,460.1,436,459.51,435.52,459.82Z" fill="#ca9adf"/><path d="M391.32,549.46a113.54,113.54,0,0,1,15.37-19.63c9.1-9.11,16.77-15.58,18-21.59s-9.13-10.46-9.13-10.46,12.6,2.26,16-3,5.12-35.92,5.12-35.92S413.8,475.2,403.1,498.15,391.32,549.46,391.32,549.46Z" fill="#ca9adf"/><path d="M428.77,466.69c-9.64,9.48-19.34,19.57-25,32a125.2,125.2,0,0,0-5.07,13.23h0c-.29.9-.59,1.81-.87,2.72a.38.38,0,0,0,0,.15,260.67,260.67,0,0,0-6.52,28.3s.09.09.11,0c1-4.78,2.07-9.6,3.29-14.42h.13a20.28,20.28,0,0,1,6-1.53c.13,0,.12-.25,0-.24a22.3,22.3,0,0,0-5.95,1.08c1.11-4.33,2.31-8.66,3.67-12.93a63.69,63.69,0,0,1,13.6-1.77v-.08a51.29,51.29,0,0,0-13.36,1.14c.23-.73.48-1.46.73-2.18a67.62,67.62,0,0,1,9.05-1.54m0-.1a43.9,43.9,0,0,0-8.86,1.08c1.25-3.69,2.64-7.33,4.09-10.87a64.2,64.2,0,0,1,4.33-8.41,53.76,53.76,0,0,1,7.34-1.32c.06,0,.06-.12,0-.12a20,20,0,0,0-7,.75q1.82-2.91,3.82-5.7h0c5.15-1.14,10.36-2.19,15.62-1.2.08,0,.12-.15,0-.16-5-1.32-10-.56-14.95.42.53-.72,1.09-1.43,1.66-2.14a34,34,0,0,1,9.6-1.51.05.05,0,1,0,0-.1,25,25,0,0,0-8.95.79c4.24-5.29,8.94-10.25,13.58-15.15.28-.3.12-.37-.12-.2Z" fill="#3f4347"/><path d="M428.52,487.57a21.08,21.08,0,0,0-4.56-.16.17.17,0,0,0-.12.21.18.18,0,0,0,.12.12c1.51,0,3-.08,4.53,0a.1.1,0,0,0,.08-.11A.1.1,0,0,0,428.52,487.57Z" fill="#3f4347"/><path d="M412,517.28A20.8,20.8,0,0,0,405,518.7v.1c2.34-.55,4.69-.78,7.06-1.17a.18.18,0,0,0,.17-.18A.18.18,0,0,0,412,517.28Z" fill="#3f4347"/><path d="M407.07,507a15.08,15.08,0,0,0-3,.27c-.09,0-.09.18,0,.18a15.84,15.84,0,0,0,3-.14C407.26,507.3,407.26,507,407.07,507Z" fill="#3f4347"/><path d="M324.16,492.33a103.63,103.63,0,0,1,21.3,10,63.49,63.49,0,0,1,17.75,16.86A157.87,157.87,0,0,1,386,565.18a123.06,123.06,0,0,1,5.17,28,.28.28,0,0,1-.54,0,159,159,0,0,0-13.89-47.6c-6.95-14.75-15.72-30.42-29.09-40.21-7.31-5.29-15.52-8.79-23.71-12.47C323.42,492.78,323.72,492.18,324.16,492.33Z" fill="#ca9adf"/><path d="M380.62,554.65a95,95,0,0,0-17-12.32c-9.49-5.29-17.19-8.73-19.54-13.33s5-10.58,5-10.58-9.68,4.73-13.69,1.26S323,491.79,323,491.79s22.33,7.93,36.28,24.05S380.62,554.65,380.62,554.65Z" fill="#ca9adf"/><path d="M379.42,549.63c-11.17-21-26.08-39.94-46.51-52.46h0a103,103,0,0,1,14.94,11.7,23.66,23.66,0,0,0-12,2.53.08.08,0,0,0,0,.11.07.07,0,0,0,.06,0,33,33,0,0,1,12.35-2.09h.14l2.15,2.09a37.41,37.41,0,0,0-6.41.86m0,.08a33.4,33.4,0,0,1,6.77-.56,141.41,141.41,0,0,1,10.58,12,10.82,10.82,0,0,0-4.49.32.1.1,0,0,0-.05.12l.05,0a23.25,23.25,0,0,1,4.79-.07c.62.79,1.23,1.55,1.84,2.35A42.66,42.66,0,0,0,350.08,528v.1a54.16,54.16,0,0,1,13.92-.91c.57.76,1.11,1.54,1.67,2.3a29.26,29.26,0,0,0-8.07.93c-.11,0-.08.18,0,.16a30.89,30.89,0,0,1,8.36-.65c2.4,3.3,4.71,6.69,6.91,10.12a7.58,7.58,0,0,0-3.54.21m0,.09a16.27,16.27,0,0,1,3.82.18c2,3.1,4,6.23,5.77,9.38.25.23.68,0,.5-.25Z" fill="#3f4347"/><path d="M362.08,532.24a17,17,0,0,0-6.49.79m0,.1a51.65,51.65,0,0,1,6.45-.67c.19,0,.19-.21,0-.22Z" fill="#3f4347"/><path d="M342.59,506.68a12,12,0,0,0-3,.17.09.09,0,1,0,0,.18c1-.1,1.95-.06,2.94-.09a.13.13,0,0,0,.16-.1A.14.14,0,0,0,342.59,506.68Z" fill="#3f4347"/><polygon points="409.43 623.99 359.01 623.99 366.2 571.33 368.03 557.84 400.39 557.84 402.23 571.33 409.43 623.99" fill="#3f4347"/><polygon points="402.23 571.33 366.2 571.33 368.03 557.84 400.39 557.84 402.23 571.33" fill="#2e3135"/><rect x="363.41" y="553.15" width="41.62" height="11.44" fill="#3f4347"/></svg>