<svg xmlns="http://www.w3.org/2000/svg" version="1.1" xmlns:xlink="http://www.w3.org/1999/xlink" xmlns:svgjs="http://svgjs.com/svgjs" width="1440" height="560" preserveAspectRatio="none" viewBox="0 0 1440 560"><g mask="url(&quot;#SvgjsMask1000&quot;)" fill="none"><rect width="1440" height="560" x="0" y="0" fill="#1e3266"></rect><path d="M1464 560L0 560 L0 304.48Q34.48 266.96, 72 301.43Q155.72 265.15, 192 348.87Q194.32 279.19, 264 281.52Q344.82 290.34, 336 371.16Q359.67 274.83, 456 298.49Q525.82 248.31, 576 318.12Q640.19 310.31, 648 374.51Q677.04 331.55, 720 360.59Q719.29 287.88, 792 287.18Q869.82 293, 864 370.83Q860.31 295.13, 936 291.44Q994.65 278.1, 1008 336.75Q1062.93 319.69, 1080 374.62Q1085.43 308.06, 1152 313.49Q1221.06 262.55, 1272 331.61Q1328.19 315.81, 1344 372Q1390.93 298.93, 1464 345.86z" fill="#182f5d"></path><path d="M1464 560L0 560 L0 404.7Q46.01 378.71, 72 424.72Q118.13 398.85, 144 444.98Q148.93 377.91, 216 382.84Q266.53 313.37, 336 363.89Q391.19 347.07, 408 402.26Q474.79 349.05, 528 415.84Q568.53 336.37, 648 376.9Q741.05 349.95, 768 443Q798.66 401.66, 840 432.33Q892.99 365.31, 960 418.3Q962.93 349.23, 1032 352.16Q1097.91 298.07, 1152 363.98Q1222.68 314.66, 1272 385.34Q1315.26 308.6, 1392 351.85Q1438.62 326.47, 1464 373.08z" fill="#25467d"></path><path d="M1488 560L0 560 L0 442.66Q51.01 421.67, 72 472.68Q114.88 443.56, 144 486.43Q156.09 426.52, 216 438.62Q244.9 395.52, 288 424.43Q342.15 406.58, 360 460.73Q446.87 427.6, 480 514.47Q519.29 433.76, 600 473.06Q630.47 431.53, 672 462.01Q719.22 437.23, 744 484.45Q775.55 396, 864 427.54Q939.12 382.65, 984 457.77Q1063.63 417.39, 1104 497.02Q1158.63 431.65, 1224 486.28Q1253.43 443.71, 1296 473.14Q1344.3 401.44, 1416 449.74Q1470.09 431.83, 1488 485.91z" fill="#356cb1"></path><path d="M1464 560L0 560 L0 569.89Q18.75 516.63, 72 535.38Q101.86 493.24, 144 523.09Q216.89 475.99, 264 548.88Q279.59 492.47, 336 508.06Q380.34 480.4, 408 524.74Q496.69 493.43, 528 582.13Q549.18 483.31, 648 504.48Q716.72 453.2, 768 521.92Q827.07 508.99, 840 568.06Q863.34 471.4, 960 494.74Q1037.52 452.26, 1080 529.78Q1126.79 504.57, 1152 551.35Q1190.73 470.08, 1272 508.81Q1346.94 463.75, 1392 538.69Q1446.78 521.47, 1464 576.25z" fill="white"></path></g><defs><mask id="SvgjsMask1000"><rect width="1440" height="560" fill="#ffffff"></rect></mask></defs></svg>