<?xml version="1.0" encoding="UTF-8" standalone="no" ?>
<!DOCTYPE svg PUBLIC "-//W3C//DTD SVG 1.1//EN" "http://www.w3.org/Graphics/SVG/1.1/DTD/svg11.dtd">
<svg xmlns="http://www.w3.org/2000/svg" xmlns:xlink="http://www.w3.org/1999/xlink" version="1.1" width="1080" height="1080" viewBox="0 0 1080 1080" xml:space="preserve">
<desc>Created with Fabric.js 5.2.4</desc>
<defs>
</defs>
<g transform="matrix(1 0 0 1 540 540)" id="bd1018ac-cc7e-426f-8d8e-fc95c1f41c75"  >
</g>
<g transform="matrix(1 0 0 1 540 540)" id="35e9e7d5-d780-4a4b-907f-c80504ed38c1"  >
<rect style="stroke: none; stroke-width: 1; stroke-dasharray: none; stroke-linecap: butt; stroke-dashoffset: 0; stroke-linejoin: miter; stroke-miterlimit: 4; fill: rgb(255,255,255); fill-rule: nonzero; opacity: 1; visibility: hidden;" vector-effect="non-scaling-stroke"  x="-540" y="-540" rx="0" ry="0" width="1080" height="1080" />
</g>
<g transform="matrix(1 0 0 1 534.35 457.5)"  >
<path style="stroke: none; stroke-width: 1; stroke-dasharray: none; stroke-linecap: butt; stroke-dashoffset: 0; stroke-linejoin: miter; stroke-miterlimit: 4; fill: rgb(245,218,141); fill-rule: nonzero; opacity: 1;" vector-effect="non-scaling-stroke"  transform=" translate(-494.35, -417.5)" d="M 259.6 609.9 C 246.90000000000003 578.6 240.20000000000002 544.8 240.20000000000002 509.9 C 240.20000000000002 439.09999999999997 267.8 372.5 317.8 322.5 C 367.90000000000003 272.4 434.4 244.9 505.20000000000005 244.9 C 576.0000000000001 244.9 642.6 272.5 692.6 322.5 C 718.1 348 737.7 377.7 750.9 410.1 L 780.1 398.20000000000005 C 765.4 362.00000000000006 743.4 328.70000000000005 714.9 300.20000000000005 C 658.9 244.20000000000005 584.4 213.30000000000004 505.2 213.30000000000004 C 426 213.30000000000004 351.5 244.10000000000005 295.5 300.20000000000005 C 239.5 356.20000000000005 208.6 430.70000000000005 208.6 509.90000000000003 C 208.6 548.9000000000001 216.1 586.7 230.29999999999998 621.7 L 259.6 609.9 z" stroke-linecap="round" />
</g>
<g transform="matrix(1 0 0 1 534.35 457.5)"  >
<path style="stroke: rgb(61,9,56); stroke-width: 4; stroke-dasharray: none; stroke-linecap: round; stroke-dashoffset: 0; stroke-linejoin: round; stroke-miterlimit: 10; fill: none; fill-rule: nonzero; opacity: 1;" vector-effect="non-scaling-stroke"  transform=" translate(-494.35, -417.5)" d="M 259.6 609.9 C 246.90000000000003 578.6 240.20000000000002 544.8 240.20000000000002 509.9 C 240.20000000000002 439.09999999999997 267.8 372.5 317.8 322.5 C 367.90000000000003 272.4 434.4 244.9 505.20000000000005 244.9 C 576.0000000000001 244.9 642.6 272.5 692.6 322.5 C 718.1 348 737.7 377.7 750.9 410.1 L 780.1 398.20000000000005 C 765.4 362.00000000000006 743.4 328.70000000000005 714.9 300.20000000000005 C 658.9 244.20000000000005 584.4 213.30000000000004 505.2 213.30000000000004 C 426 213.30000000000004 351.5 244.10000000000005 295.5 300.20000000000005 C 239.5 356.20000000000005 208.6 430.70000000000005 208.6 509.90000000000003 C 208.6 548.9000000000001 216.1 586.7 230.29999999999998 621.7 L 259.6 609.9 z" stroke-linecap="round" />
</g>
<g transform="matrix(1 0 0 1 535.65 467.4)"  >
<path style="stroke: none; stroke-width: 1; stroke-dasharray: none; stroke-linecap: butt; stroke-dashoffset: 0; stroke-linejoin: miter; stroke-miterlimit: 4; fill: rgb(227,137,128); fill-rule: nonzero; opacity: 1;" vector-effect="non-scaling-stroke"  transform=" translate(-495.65, -427.4)" d="M 288.8 598.1 C 277.6 570.5 271.7 540.7 271.7 510 C 271.7 447.6 296 389 340.1 344.8 C 384.20000000000005 300.7 442.90000000000003 276.4 505.3 276.4 C 567.7 276.4 626.3 300.7 670.5 344.79999999999995 C 693 367.29999999999995 710.3 393.49999999999994 721.8 421.99999999999994 L 751 410.09999999999997 C 737.8 377.7 718.2 347.9 692.7 322.5 C 642.6 272.4 576.1 244.9 505.30000000000007 244.9 C 434.5000000000001 244.9 367.9000000000001 272.5 317.9000000000001 322.5 C 267.80000000000007 372.6 240.3000000000001 439.1 240.3000000000001 509.9 C 240.3000000000001 544.6999999999999 247.00000000000009 578.5 259.7000000000001 609.9 L 288.8 598.1 z" stroke-linecap="round" />
</g>
<g transform="matrix(1 0 0 1 535.65 467.4)"  >
<path style="stroke: rgb(61,9,56); stroke-width: 4; stroke-dasharray: none; stroke-linecap: round; stroke-dashoffset: 0; stroke-linejoin: round; stroke-miterlimit: 10; fill: none; fill-rule: nonzero; opacity: 1;" vector-effect="non-scaling-stroke"  transform=" translate(-495.65, -427.4)" d="M 288.8 598.1 C 277.6 570.5 271.7 540.7 271.7 510 C 271.7 447.6 296 389 340.1 344.8 C 384.20000000000005 300.7 442.90000000000003 276.4 505.3 276.4 C 567.7 276.4 626.3 300.7 670.5 344.79999999999995 C 693 367.29999999999995 710.3 393.49999999999994 721.8 421.99999999999994 L 751 410.09999999999997 C 737.8 377.7 718.2 347.9 692.7 322.5 C 642.6 272.4 576.1 244.9 505.30000000000007 244.9 C 434.5000000000001 244.9 367.9000000000001 272.5 317.9000000000001 322.5 C 267.80000000000007 372.6 240.3000000000001 439.1 240.3000000000001 509.9 C 240.3000000000001 544.6999999999999 247.00000000000009 578.5 259.7000000000001 609.9 L 288.8 598.1 z" stroke-linecap="round" />
</g>
<g transform="matrix(1 0 0 1 536.75 477.25)"  >
<path style="stroke: none; stroke-width: 1; stroke-dasharray: none; stroke-linecap: butt; stroke-dashoffset: 0; stroke-linejoin: miter; stroke-miterlimit: 4; fill: rgb(204,95,126); fill-rule: nonzero; opacity: 1;" vector-effect="non-scaling-stroke"  transform=" translate(-496.75, -437.25)" d="M 318 586.2 C 308.3 562.3000000000001 303.2 536.5 303.2 510.00000000000006 C 303.2 456.00000000000006 324.2 405.30000000000007 362.4 367.1 C 400.59999999999997 328.90000000000003 451.29999999999995 307.90000000000003 505.29999999999995 307.90000000000003 C 559.3 307.90000000000003 610 328.90000000000003 648.1999999999999 367.1 C 667.5999999999999 386.5 682.5999999999999 409.20000000000005 692.5999999999999 433.90000000000003 L 721.8 422.00000000000006 C 710.1999999999999 393.40000000000003 692.9 367.20000000000005 670.5 344.80000000000007 C 626.4 300.70000000000005 567.7 276.4000000000001 505.3 276.4000000000001 C 442.9 276.4000000000001 384.3 300.7000000000001 340.1 344.80000000000007 C 296 388.9 271.7 447.6 271.7 510 C 271.7 540.7 277.59999999999997 570.5 288.8 598.1 L 318 586.2 z" stroke-linecap="round" />
</g>
<g transform="matrix(1 0 0 1 536.75 477.25)"  >
<path style="stroke: rgb(61,9,56); stroke-width: 4; stroke-dasharray: none; stroke-linecap: round; stroke-dashoffset: 0; stroke-linejoin: round; stroke-miterlimit: 10; fill: none; fill-rule: nonzero; opacity: 1;" vector-effect="non-scaling-stroke"  transform=" translate(-496.75, -437.25)" d="M 318 586.2 C 308.3 562.3000000000001 303.2 536.5 303.2 510.00000000000006 C 303.2 456.00000000000006 324.2 405.30000000000007 362.4 367.1 C 400.59999999999997 328.90000000000003 451.29999999999995 307.90000000000003 505.29999999999995 307.90000000000003 C 559.3 307.90000000000003 610 328.90000000000003 648.1999999999999 367.1 C 667.5999999999999 386.5 682.5999999999999 409.20000000000005 692.5999999999999 433.90000000000003 L 721.8 422.00000000000006 C 710.1999999999999 393.40000000000003 692.9 367.20000000000005 670.5 344.80000000000007 C 626.4 300.70000000000005 567.7 276.4000000000001 505.3 276.4000000000001 C 442.9 276.4000000000001 384.3 300.7000000000001 340.1 344.80000000000007 C 296 388.9 271.7 447.6 271.7 510 C 271.7 540.7 277.59999999999997 570.5 288.8 598.1 L 318 586.2 z" stroke-linecap="round" />
</g>
<g transform="matrix(1 0 0 1 539.05 496.9)"  >
<path style="stroke: none; stroke-width: 1; stroke-dasharray: none; stroke-linecap: butt; stroke-dashoffset: 0; stroke-linejoin: miter; stroke-miterlimit: 4; fill: rgb(54,194,227); fill-rule: nonzero; opacity: 1;" vector-effect="non-scaling-stroke"  transform=" translate(-499.05, -456.9)" d="M 376.4 562.5 C 369.79999999999995 546.3 366.2 528.6 366.2 510 C 366.2 433.2 428.5 370.9 505.29999999999995 370.9 C 563.5999999999999 370.9 613.5 406.79999999999995 634.1999999999999 457.7 L 663.4 445.8 C 654.9 424.90000000000003 642.3 405.8 625.9 389.40000000000003 C 593.6999999999999 357.20000000000005 550.8 339.40000000000003 505.29999999999995 339.40000000000003 C 459.69999999999993 339.40000000000003 416.9 357.1 384.69999999999993 389.40000000000003 C 352.49999999999994 421.6 334.69999999999993 464.5 334.69999999999993 510 C 334.69999999999993 532.4 338.99999999999994 554.2 347.19999999999993 574.4 L 376.4 562.5 z" stroke-linecap="round" />
</g>
<g transform="matrix(1 0 0 1 539.05 496.9)"  >
<path style="stroke: rgb(61,9,56); stroke-width: 4; stroke-dasharray: none; stroke-linecap: round; stroke-dashoffset: 0; stroke-linejoin: round; stroke-miterlimit: 10; fill: none; fill-rule: nonzero; opacity: 1;" vector-effect="non-scaling-stroke"  transform=" translate(-499.05, -456.9)" d="M 376.4 562.5 C 369.79999999999995 546.3 366.2 528.6 366.2 510 C 366.2 433.2 428.5 370.9 505.29999999999995 370.9 C 563.5999999999999 370.9 613.5 406.79999999999995 634.1999999999999 457.7 L 663.4 445.8 C 654.9 424.90000000000003 642.3 405.8 625.9 389.40000000000003 C 593.6999999999999 357.20000000000005 550.8 339.40000000000003 505.29999999999995 339.40000000000003 C 459.69999999999993 339.40000000000003 416.9 357.1 384.69999999999993 389.40000000000003 C 352.49999999999994 421.6 334.69999999999993 464.5 334.69999999999993 510 C 334.69999999999993 532.4 338.99999999999994 554.2 347.19999999999993 574.4 L 376.4 562.5 z" stroke-linecap="round" />
</g>
<g transform="matrix(1 0 0 1 537.9 486.95)"  >
<path style="stroke: none; stroke-width: 1; stroke-dasharray: none; stroke-linecap: butt; stroke-dashoffset: 0; stroke-linejoin: miter; stroke-miterlimit: 4; fill: rgb(109,79,141); fill-rule: nonzero; opacity: 1;" vector-effect="non-scaling-stroke"  transform=" translate(-497.9, -446.95)" d="M 347.2 574.3 C 339 554.0999999999999 334.7 532.4 334.7 509.9 C 334.7 464.29999999999995 352.4 421.5 384.7 389.29999999999995 C 416.9 357.09999999999997 459.79999999999995 339.29999999999995 505.29999999999995 339.29999999999995 C 550.9 339.29999999999995 593.6999999999999 356.99999999999994 625.9 389.29999999999995 C 642.3 405.69999999999993 654.9 424.9 663.4 445.69999999999993 L 692.6 433.79999999999995 C 682.6 409.09999999999997 667.6 386.4 648.2 366.99999999999994 C 610 328.79999999999995 559.3000000000001 307.79999999999995 505.30000000000007 307.79999999999995 C 451.30000000000007 307.79999999999995 400.6000000000001 328.79999999999995 362.4000000000001 366.99999999999994 C 324.2000000000001 405.19999999999993 303.2000000000001 455.9 303.2000000000001 509.9 C 303.2000000000001 536.5 308.3000000000001 562.1999999999999 318.0000000000001 586.1 L 347.2 574.3 z" stroke-linecap="round" />
</g>
<g transform="matrix(1 0 0 1 537.9 486.95)"  >
<path style="stroke: rgb(61,9,56); stroke-width: 4; stroke-dasharray: none; stroke-linecap: round; stroke-dashoffset: 0; stroke-linejoin: round; stroke-miterlimit: 10; fill: none; fill-rule: nonzero; opacity: 1;" vector-effect="non-scaling-stroke"  transform=" translate(-497.9, -446.95)" d="M 347.2 574.3 C 339 554.0999999999999 334.7 532.4 334.7 509.9 C 334.7 464.29999999999995 352.4 421.5 384.7 389.29999999999995 C 416.9 357.09999999999997 459.79999999999995 339.29999999999995 505.29999999999995 339.29999999999995 C 550.9 339.29999999999995 593.6999999999999 356.99999999999994 625.9 389.29999999999995 C 642.3 405.69999999999993 654.9 424.9 663.4 445.69999999999993 L 692.6 433.79999999999995 C 682.6 409.09999999999997 667.6 386.4 648.2 366.99999999999994 C 610 328.79999999999995 559.3000000000001 307.79999999999995 505.30000000000007 307.79999999999995 C 451.30000000000007 307.79999999999995 400.6000000000001 328.79999999999995 362.4000000000001 366.99999999999994 C 324.2000000000001 405.19999999999993 303.2000000000001 455.9 303.2000000000001 509.9 C 303.2000000000001 536.5 308.3000000000001 562.1999999999999 318.0000000000001 586.1 L 347.2 574.3 z" stroke-linecap="round" />
</g>
<g transform="matrix(1 0 0 1 400.5 579)" id="XMLID_11_"  >
<line style="stroke: rgb(61,9,56); stroke-width: 6; stroke-dasharray: none; stroke-linecap: round; stroke-dashoffset: 0; stroke-linejoin: round; stroke-miterlimit: 10; fill: none; fill-rule: nonzero; opacity: 1;" vector-effect="non-scaling-stroke"  x1="-14.699999999999989" y1="0" x2="14.699999999999989" y2="0" />
</g>
<g transform="matrix(1 0 0 1 422.95 579)" id="XMLID_12_"  >
<line style="stroke: rgb(61,9,56); stroke-width: 6; stroke-dasharray: none; stroke-linecap: round; stroke-dashoffset: 0; stroke-linejoin: round; stroke-miterlimit: 10; fill: none; fill-rule: nonzero; opacity: 1;" vector-effect="non-scaling-stroke"  x1="-14.650000000000006" y1="0" x2="14.650000000000006" y2="0" />
</g>
<g transform="matrix(1 0 0 1 736.2 465.4)"  >
<path style="stroke: none; stroke-width: 1; stroke-dasharray: none; stroke-linecap: butt; stroke-dashoffset: 0; stroke-linejoin: miter; stroke-miterlimit: 4; fill: rgb(255,255,255); fill-rule: nonzero; opacity: 1;" vector-effect="non-scaling-stroke"  transform=" translate(-696.2, -425.4)" d="M 787.7 386.2 C 779.8000000000001 386.2 772.6 389.5 767.5 394.9 C 764.4 364.4 738.6 340.7 707.3 340.7 C 681.5 340.7 659.4 356.9 650.8 379.7 C 644.5999999999999 377.5 637.9 376.3 630.8 376.3 C 601.0999999999999 376.3 577 397.6 577 423.90000000000003 C 577 448.50000000000006 598.1 468.8 625.2 471.3 C 631.9000000000001 493.7 652.7 510.1 677.3000000000001 510.1 C 700.0000000000001 510.1 719.4000000000001 496.20000000000005 727.6 476.5 C 734 482.2 742.3000000000001 485.6 751.5 485.6 C 771.4 485.6 787.5 469.5 787.5 449.6 C 787.5 447 787.2 444.6 786.7 442.20000000000005 C 787 442.20000000000005 787.2 442.20000000000005 787.5 442.20000000000005 C 802.9 442.20000000000005 815.4 429.70000000000005 815.4 414.30000000000007 C 815.6 398.7 803.1 386.2 787.7 386.2 z" stroke-linecap="round" />
</g>
<g transform="matrix(1 0 0 1 736.4 496.1)"  >
<path style="stroke: none; stroke-width: 1; stroke-dasharray: none; stroke-linecap: butt; stroke-dashoffset: 0; stroke-linejoin: miter; stroke-miterlimit: 4; fill: rgb(204,255,255); fill-rule: nonzero; opacity: 1;" vector-effect="non-scaling-stroke"  transform=" translate(-696.4, -456.1)" d="M 787.7 418.1 C 787.4000000000001 418.1 787.2 418.1 786.9000000000001 418.1 C 787.4000000000001 420.5 787.7 423 787.7 425.5 C 787.7 445.4 771.6 461.5 751.7 461.5 C 742.5 461.5 734.1 458.1 727.8000000000001 452.4 C 719.6 472.09999999999997 700.2 486 677.5000000000001 486 C 652.9000000000001 486 632.1000000000001 469.6 625.4000000000001 447.2 C 602.9000000000001 445.09999999999997 584.5000000000001 430.8 578.9000000000001 411.8 C 577.8000000000001 415.6 577.2 419.7 577.2 423.8 C 577.2 448.40000000000003 598.3000000000001 468.7 625.4000000000001 471.2 C 632.1000000000001 493.59999999999997 652.9000000000001 510 677.5000000000001 510 C 700.2000000000002 510 719.6000000000001 496.1 727.8000000000001 476.4 C 734.2 482.09999999999997 742.5000000000001 485.5 751.7 485.5 C 771.6 485.5 787.7 469.4 787.7 449.5 C 787.7 446.9 787.4000000000001 444.5 786.9000000000001 442.1 C 787.2 442.1 787.4000000000001 442.1 787.7 442.1 C 803.1 442.1 815.6 429.6 815.6 414.20000000000005 C 815.6 409.90000000000003 814.6 405.80000000000007 812.9 402.20000000000005 C 808.4 411.6 798.8 418.1 787.7 418.1 z" stroke-linecap="round" />
</g>
<g transform="matrix(1 0 0 1 719.15 434.15)"  >
<path style="stroke: none; stroke-width: 1; stroke-dasharray: none; stroke-linecap: butt; stroke-dashoffset: 0; stroke-linejoin: miter; stroke-miterlimit: 4; fill: rgb(61,9,56); fill-rule: nonzero; opacity: 0.43;" vector-effect="non-scaling-stroke"  transform=" translate(-679.15, -394.15)" d="M 780.2 398.3 L 751 410.2 L 663.4 445.8 L 634.1999999999999 457.7 C 622.9999999999999 430.09999999999997 603.1999999999999 406.9 578.0999999999999 391.5 C 584.6999999999999 382.7 593.8999999999999 375.7 604.6999999999999 371.3 C 612.6999999999999 368 621.5999999999999 366.2 630.9 366.2 C 635.8 366.2 640.6 366.7 645.3 367.7 C 645.6999999999999 367 646.0999999999999 366.2 646.5 365.5 C 651.9 356.3 659.4 348.5 668.1 342.6 C 677.7 336.20000000000005 688.9 332.1 700.6 330.90000000000003 C 702.8000000000001 330.70000000000005 705 330.6 707.2 330.6 C 724.9000000000001 330.6 741.2 337.1 753.6 348 C 764.2 363.9 773.1 380.8 780.2 398.3 z" stroke-linecap="round" />
</g>
<g transform="matrix(1 0 0 1 736.2 465.4)"  >
<path style="stroke: rgb(61,9,56); stroke-width: 4; stroke-dasharray: none; stroke-linecap: round; stroke-dashoffset: 0; stroke-linejoin: round; stroke-miterlimit: 10; fill: none; fill-rule: nonzero; opacity: 1;" vector-effect="non-scaling-stroke"  transform=" translate(-696.2, -425.4)" d="M 787.7 386.2 C 779.8000000000001 386.2 772.6 389.5 767.5 394.9 C 764.4 364.4 738.6 340.7 707.3 340.7 C 681.5 340.7 659.4 356.9 650.8 379.7 C 644.5999999999999 377.5 637.9 376.3 630.8 376.3 C 601.0999999999999 376.3 577 397.6 577 423.90000000000003 C 577 448.50000000000006 598.1 468.8 625.2 471.3 C 631.9000000000001 493.7 652.7 510.1 677.3000000000001 510.1 C 700.0000000000001 510.1 719.4000000000001 496.20000000000005 727.6 476.5 C 734 482.2 742.3000000000001 485.6 751.5 485.6 C 771.4 485.6 787.5 469.5 787.5 449.6 C 787.5 447 787.2 444.6 786.7 442.20000000000005 C 787 442.20000000000005 787.2 442.20000000000005 787.5 442.20000000000005 C 802.9 442.20000000000005 815.4 429.70000000000005 815.4 414.30000000000007 C 815.6 398.7 803.1 386.2 787.7 386.2 z" stroke-linecap="round" />
</g>
<g transform="matrix(1 0 0 1 332.55 578.8)"  >
<path style="stroke: none; stroke-width: 1; stroke-dasharray: none; stroke-linecap: butt; stroke-dashoffset: 0; stroke-linejoin: miter; stroke-miterlimit: 4; fill: rgb(61,9,56); fill-rule: nonzero; opacity: 0.43;" vector-effect="non-scaling-stroke"  transform=" translate(-292.55, -538.8)" d="M 376.4 562.5 L 347.2 574.4 L 288.8 598.1 L 259.6 610 L 230.40000000000003 621.9 C 216.10000000000002 586.9 208.70000000000005 549 208.70000000000005 510.09999999999997 C 208.70000000000005 503.4 208.90000000000003 496.79999999999995 209.40000000000003 490.2 C 210.30000000000004 490.2 211.20000000000005 490.2 212.10000000000002 490.2 C 217.3 490.2 222.40000000000003 490.7 227.40000000000003 491.7 C 231.80000000000004 485.8 236.80000000000004 480.59999999999997 242.40000000000003 476 C 252.60000000000002 467.6 264.6 461.6 277.40000000000003 458.4 C 283.40000000000003 456.9 289.6 456 295.90000000000003 455.79999999999995 C 296.90000000000003 455.79999999999995 297.90000000000003 455.69999999999993 299.00000000000006 455.69999999999993 C 302.80000000000007 455.69999999999993 306.6000000000001 455.8999999999999 310.30000000000007 456.3999999999999 C 321.00000000000006 457.7999999999999 331.1000000000001 461.0999999999999 340.30000000000007 465.8999999999999 C 350.80000000000007 471.3999999999999 360.20000000000005 479.0999999999999 367.80000000000007 488.19999999999993 C 366.70000000000005 495.29999999999995 366.1000000000001 502.5999999999999 366.1000000000001 509.99999999999994 C 366.2 528.6 369.8 546.3 376.4 562.5 z" stroke-linecap="round" />
</g>
<g transform="matrix(1 0 0 1 355.94 614.06)"  >
<path style="stroke: none; stroke-width: 1; stroke-dasharray: none; stroke-linecap: butt; stroke-dashoffset: 0; stroke-linejoin: miter; stroke-miterlimit: 4; fill: rgb(255,255,255); fill-rule: nonzero; opacity: 1;" vector-effect="non-scaling-stroke"  transform=" translate(-315.94, -574.05)" d="M 489.2 596.7 C 488.5 576.5 471.59999999999997 560.7 451.4 561.4000000000001 C 449.5 561.5000000000001 447.59999999999997 561.7 445.7 562.0000000000001 C 437.5 540.2000000000002 416.2 525.1000000000001 391.59999999999997 525.9000000000001 C 386.29999999999995 526.1000000000001 381.29999999999995 527.0000000000001 376.49999999999994 528.5000000000001 C 368.79999999999995 491.5000000000001 335.29999999999995 464.3000000000001 296.29999999999995 465.60000000000014 C 268.9 466.5000000000001 245.19999999999996 481.20000000000016 231.69999999999996 502.90000000000015 C 224.69999999999996 500.8000000000001 217.29999999999995 499.8000000000001 209.69999999999996 500.10000000000014 C 171.39999999999998 501.40000000000015 141.39999999999998 533.5000000000001 142.69999999999996 571.8000000000002 C 143.99999999999997 610.1000000000001 176.09999999999997 640.1000000000001 214.39999999999998 638.8000000000002 C 216.7 638.7000000000002 218.99999999999997 638.5000000000002 221.29999999999998 638.2000000000002 C 234.6 665.4000000000002 263 683.6000000000001 295.2 682.5000000000001 C 328.4 681.4000000000001 356.2 660.0000000000001 367 630.5000000000001 C 375.4 635.1000000000001 385.2 637.6000000000001 395.5 637.2000000000002 C 407.9 636.8000000000002 419.3 632.3000000000002 428.3 625.1000000000001 C 435.1 631.1000000000001 444.1 634.7000000000002 453.90000000000003 634.4000000000001 C 474 633.8 489.8 616.9 489.2 596.7 z" stroke-linecap="round" />
</g>
<g transform="matrix(1 0 0 1 355.85 660.57)"  >
<path style="stroke: none; stroke-width: 1; stroke-dasharray: none; stroke-linecap: butt; stroke-dashoffset: 0; stroke-linejoin: miter; stroke-miterlimit: 4; fill: rgb(204,255,255); fill-rule: nonzero; opacity: 1;" vector-effect="non-scaling-stroke"  transform=" translate(-315.85, -620.57)" d="M 487.4 586.8 C 482.79999999999995 601.0999999999999 469.7 611.5999999999999 453.79999999999995 612.1999999999999 C 443.99999999999994 612.4999999999999 434.99999999999994 608.9999999999999 428.19999999999993 602.9 C 419.19999999999993 610.1 407.79999999999995 614.6 395.3999999999999 615 C 385.0999999999999 615.3 375.2999999999999 612.9 366.8999999999999 608.3 C 356.0999999999999 637.6999999999999 328.3999999999999 659.0999999999999 295.0999999999999 660.3 C 262.8999999999999 661.4 234.5999999999999 643.0999999999999 221.1999999999999 616 C 218.8999999999999 616.3 216.5999999999999 616.5 214.2999999999999 616.6 C 178.9999999999999 617.8000000000001 148.9999999999999 592.4 143.4999999999999 558.4 C 142.7999999999999 562.8 142.4999999999999 567.3 142.59999999999988 572 C 143.8999999999999 610.3 175.9999999999999 640.3 214.2999999999999 639 C 216.5999999999999 638.9 218.8999999999999 638.7 221.1999999999999 638.4 C 234.49999999999991 665.6 262.8999999999999 683.8 295.0999999999999 682.6999999999999 C 328.2999999999999 681.5999999999999 356.0999999999999 660.1999999999999 366.8999999999999 630.6999999999999 C 375.2999999999999 635.3 385.0999999999999 637.8 395.3999999999999 637.4 C 407.7999999999999 637 419.19999999999993 632.5 428.19999999999993 625.3 C 434.99999999999994 631.3 443.99999999999994 634.9 453.79999999999995 634.5999999999999 C 473.99999999999994 633.8999999999999 489.79999999999995 616.9999999999999 489.09999999999997 596.8 C 489.1 593.3 488.4 589.9 487.4 586.8 z" stroke-linecap="round" />
</g>
<g transform="matrix(1 0 0 1 355.94 614.06)"  >
<path style="stroke: rgb(61,9,56); stroke-width: 4; stroke-dasharray: none; stroke-linecap: round; stroke-dashoffset: 0; stroke-linejoin: round; stroke-miterlimit: 10; fill: none; fill-rule: nonzero; opacity: 1;" vector-effect="non-scaling-stroke"  transform=" translate(-315.94, -574.05)" d="M 489.2 596.7 C 488.5 576.5 471.59999999999997 560.7 451.4 561.4000000000001 C 449.5 561.5000000000001 447.59999999999997 561.7 445.7 562.0000000000001 C 437.5 540.2000000000002 416.2 525.1000000000001 391.59999999999997 525.9000000000001 C 386.29999999999995 526.1000000000001 381.29999999999995 527.0000000000001 376.49999999999994 528.5000000000001 C 368.79999999999995 491.5000000000001 335.29999999999995 464.3000000000001 296.29999999999995 465.60000000000014 C 268.9 466.5000000000001 245.19999999999996 481.20000000000016 231.69999999999996 502.90000000000015 C 224.69999999999996 500.8000000000001 217.29999999999995 499.8000000000001 209.69999999999996 500.10000000000014 C 171.39999999999998 501.40000000000015 141.39999999999998 533.5000000000001 142.69999999999996 571.8000000000002 C 143.99999999999997 610.1000000000001 176.09999999999997 640.1000000000001 214.39999999999998 638.8000000000002 C 216.7 638.7000000000002 218.99999999999997 638.5000000000002 221.29999999999998 638.2000000000002 C 234.6 665.4000000000002 263 683.6000000000001 295.2 682.5000000000001 C 328.4 681.4000000000001 356.2 660.0000000000001 367 630.5000000000001 C 375.4 635.1000000000001 385.2 637.6000000000001 395.5 637.2000000000002 C 407.9 636.8000000000002 419.3 632.3000000000002 428.3 625.1000000000001 C 435.1 631.1000000000001 444.1 634.7000000000002 453.90000000000003 634.4000000000001 C 474 633.8 489.8 616.9 489.2 596.7 z" stroke-linecap="round" />
</g>
<g transform="matrix(1 0 0 1 594.2 633.4)" id="XMLID_67_"  >
<polygon style="stroke: none; stroke-width: 1; stroke-dasharray: none; stroke-linecap: butt; stroke-dashoffset: 0; stroke-linejoin: miter; stroke-miterlimit: 4; fill: rgb(240,64,111); fill-rule: nonzero; opacity: 1;" vector-effect="non-scaling-stroke"  points="-10.2,-9 3.3,9 10.2,-2.1 " />
</g>
<g transform="matrix(1 0 0 1 594.2 633.4)" id="XMLID_114_"  >
<polygon style="stroke: rgb(61,9,56); stroke-width: 4; stroke-dasharray: none; stroke-linecap: round; stroke-dashoffset: 0; stroke-linejoin: round; stroke-miterlimit: 10; fill: none; fill-rule: nonzero; opacity: 1;" vector-effect="non-scaling-stroke"  points="-10.2,-9 3.3,9 10.2,-2.1 " />
</g>
<g transform="matrix(1 0 0 1 604.85 618.6)" id="XMLID_66_"  >
<polygon style="stroke: none; stroke-width: 1; stroke-dasharray: none; stroke-linecap: butt; stroke-dashoffset: 0; stroke-linejoin: miter; stroke-miterlimit: 4; fill: rgb(240,64,111); fill-rule: nonzero; opacity: 1;" vector-effect="non-scaling-stroke"  points="-11.45,-12.7 -0.45,12.7 11.45,6.1 " />
</g>
<g transform="matrix(1 0 0 1 604.85 618.6)" id="XMLID_115_"  >
<polygon style="stroke: rgb(61,9,56); stroke-width: 4; stroke-dasharray: none; stroke-linecap: round; stroke-dashoffset: 0; stroke-linejoin: round; stroke-miterlimit: 10; fill: none; fill-rule: nonzero; opacity: 1;" vector-effect="non-scaling-stroke"  points="-11.45,-12.7 -0.45,12.7 11.45,6.1 " />
</g>
<g transform="matrix(1 0 0 1 712.83 672.5)"  >
<path style="stroke: none; stroke-width: 1; stroke-dasharray: none; stroke-linecap: butt; stroke-dashoffset: 0; stroke-linejoin: miter; stroke-miterlimit: 4; fill: rgb(212,144,127); fill-rule: nonzero; opacity: 1;" vector-effect="non-scaling-stroke"  transform=" translate(-672.83, -632.5)" d="M 743.5 604.9 C 734 606.1 712.7 607.1 688.3 598.3 C 655.1999999999999 586.4 638.3 588.4 631 590.5999999999999 C 631 590.5999999999999 631 590.5999999999999 631 590.5999999999999 C 628.5 591.3 626 592.1999999999999 623.5 593.3 C 601.9 603.4 592.6 629.1999999999999 602.8 650.6999999999999 C 609.1999999999999 664.4 621.9 673.0999999999999 635.8 675.0999999999999 C 635.8 675.0999999999999 635.8 675.0999999999999 635.8 675.0999999999999 C 635.8 675.0999999999999 636.1999999999999 675.1999999999999 637 675.1999999999999 C 637.2 675.1999999999999 637.4 675.1999999999999 637.6 675.3 C 642.8000000000001 675.9 658.4 677.1999999999999 669 673.9 C 680 668.6999999999999 664 663.1999999999999 664 663.1999999999999 C 664 663.1999999999999 676.5 666.6999999999999 685.9 661.9 C 699.6999999999999 654.8 684.3 649.8 684.3 649.8 C 684.3 649.8 697.9 653.9 707.9 644.6999999999999 C 714.1999999999999 638.9 708.6999999999999 636.9 703.6999999999999 636.1999999999999 C 710.6999999999999 636.3 722.3 635.3 726.1999999999999 627.9999999999999 C 728.9999999999999 622.7999999999998 722.6999999999999 621.5999999999999 717.9999999999999 621.3999999999999 C 723.8999999999999 621.1999999999998 734.3999999999999 619.9999999999999 740.3999999999999 615.3999999999999 C 743.1999999999998 613.1999999999998 745.0999999999999 611.2999999999998 746.3999999999999 609.6999999999998 C 748 607.7 746.2 604.6 743.5 604.9 z" stroke-linecap="round" />
</g>
<g transform="matrix(1 0 0 1 712.83 672.5)"  >
<path style="stroke: rgb(61,9,56); stroke-width: 4; stroke-dasharray: none; stroke-linecap: round; stroke-dashoffset: 0; stroke-linejoin: round; stroke-miterlimit: 10; fill: none; fill-rule: nonzero; opacity: 1;" vector-effect="non-scaling-stroke"  transform=" translate(-672.83, -632.5)" d="M 743.5 604.9 C 734 606.1 712.7 607.1 688.3 598.3 C 655.1999999999999 586.4 638.3 588.4 631 590.5999999999999 C 631 590.5999999999999 631 590.5999999999999 631 590.5999999999999 C 628.5 591.3 626 592.1999999999999 623.5 593.3 C 601.9 603.4 592.6 629.1999999999999 602.8 650.6999999999999 C 609.1999999999999 664.4 621.9 673.0999999999999 635.8 675.0999999999999 C 635.8 675.0999999999999 635.8 675.0999999999999 635.8 675.0999999999999 C 635.8 675.0999999999999 636.1999999999999 675.1999999999999 637 675.1999999999999 C 637.2 675.1999999999999 637.4 675.1999999999999 637.6 675.3 C 642.8000000000001 675.9 658.4 677.1999999999999 669 673.9 C 680 668.6999999999999 664 663.1999999999999 664 663.1999999999999 C 664 663.1999999999999 676.5 666.6999999999999 685.9 661.9 C 699.6999999999999 654.8 684.3 649.8 684.3 649.8 C 684.3 649.8 697.9 653.9 707.9 644.6999999999999 C 714.1999999999999 638.9 708.6999999999999 636.9 703.6999999999999 636.1999999999999 C 710.6999999999999 636.3 722.3 635.3 726.1999999999999 627.9999999999999 C 728.9999999999999 622.7999999999998 720.0999999999999 621.4999999999999 715.4999999999999 621.2999999999998 C 721.3999999999999 621.0999999999998 734.3999999999999 619.9999999999999 740.3999999999999 615.3999999999999 C 743.1999999999998 613.1999999999998 745.0999999999999 611.2999999999998 746.3999999999999 609.6999999999998 C 748 607.7 746.2 604.6 743.5 604.9 z" stroke-linecap="round" />
</g>
<g transform="matrix(1 0 0 1 765.35 741.32)"  >
<path style="stroke: rgb(61,9,56); stroke-width: 5; stroke-dasharray: none; stroke-linecap: round; stroke-dashoffset: 0; stroke-linejoin: round; stroke-miterlimit: 10; fill: none; fill-rule: nonzero; opacity: 1;" vector-effect="non-scaling-stroke"  transform=" translate(-725.35, -701.32)" d="M 678.9 682.6 C 678.9 682.6 699.6999999999999 687.4 729.5 705.7 C 759.4 723.9000000000001 771.8 719.6 771.8 719.6" stroke-linecap="round" />
</g>
<g transform="matrix(1 0 0 1 750.6 745.5)"  >
<path style="stroke: rgb(61,9,56); stroke-width: 5; stroke-dasharray: none; stroke-linecap: round; stroke-dashoffset: 0; stroke-linejoin: round; stroke-miterlimit: 10; fill: none; fill-rule: nonzero; opacity: 1;" vector-effect="non-scaling-stroke"  transform=" translate(-710.6, -705.5)" d="M 736.6 727.9 C 736.6 727.9 722.9 727.4 709.3000000000001 709.6999999999999 C 695.7000000000002 691.9999999999999 690.3000000000001 683.4999999999999 684.6 683.0999999999999" stroke-linecap="round" />
</g>
<g transform="matrix(1 0 0 1 812.53 675.51)"  >
<path style="stroke: none; stroke-width: 1; stroke-dasharray: none; stroke-linecap: butt; stroke-dashoffset: 0; stroke-linejoin: miter; stroke-miterlimit: 4; fill: rgb(240,64,111); fill-rule: nonzero; opacity: 1;" vector-effect="non-scaling-stroke"  transform=" translate(-772.53, -635.51)" d="M 787.4 647.7 C 788.3 646.7 789.1 645 788.8 643.3000000000001 C 788.6999999999999 642.9000000000001 788.4 641.8000000000001 787.4 641.1 C 786.4 640.3000000000001 785 640 783.5 640.3000000000001 C 786.5 639.6 788.4 636.9000000000001 788 634.3000000000001 C 788 634.3000000000001 788 634.3000000000001 788 634.3000000000001 C 788 634.3000000000001 788 634.3000000000001 788 634.3000000000001 C 787.5 631.7 784.7 629.8000000000001 781.7 630.2 C 783.2 630 784.4000000000001 629.2 785.1 628.1 C 785.7 627.1 785.7 626 785.6 625.5 C 785.4 623.8 784 622.5 782.8000000000001 621.9 C 780.2 620.6 776.9000000000001 622 774.1 623.1999999999999 C 768.6 625.4999999999999 765.2 628.9999999999999 762.8000000000001 631.4999999999999 C 761.0000000000001 633.3999999999999 758.5000000000001 636.1999999999999 756.2 640.0999999999999 C 756.2 640.0999999999999 756.2 640.0999999999999 756.2 640.0999999999999 C 756.2 640.0999999999999 756.2 640.0999999999999 756.2 640.0999999999999 C 759.7 642.8999999999999 763 644.6999999999999 765.3000000000001 645.8 C 768.4000000000001 647.3 772.8000000000001 649.3 778.8000000000001 649.5999999999999 C 781.8 649.7 785.4 649.8 787.4 647.7 z" stroke-linecap="round" />
</g>
<g transform="matrix(1 0 0 1 810.6 683.47)"  >
<path style="stroke: none; stroke-width: 1; stroke-dasharray: none; stroke-linecap: butt; stroke-dashoffset: 0; stroke-linejoin: miter; stroke-miterlimit: 4; fill: rgb(219,44,98); fill-rule: nonzero; opacity: 1;" vector-effect="non-scaling-stroke"  transform=" translate(-770.6, -643.47)" d="M 786.9 643.3 C 786.8 642.9 786.5 641.8 785.5 641.0999999999999 C 785.3 640.9999999999999 785.1 640.8999999999999 784.9 640.6999999999999 C 784.6 641.4 784.1999999999999 641.9 783.8 642.4 C 781.8 644.5 778.1999999999999 644.4 775.1999999999999 644.3 C 769.1999999999999 644 764.8 642 761.6999999999999 640.5 C 760.0999999999999 639.8 758.1999999999999 638.7 755.9999999999999 637.3 C 755.3999999999999 638.1999999999999 754.7999999999998 639.0999999999999 754.1999999999999 640.0999999999999 C 754.1999999999999 640.0999999999999 754.1999999999999 640.0999999999999 754.1999999999999 640.0999999999999 C 754.1999999999999 640.0999999999999 754.1999999999999 640.0999999999999 754.1999999999999 640.0999999999999 C 757.6999999999999 642.8999999999999 760.9999999999999 644.6999999999999 763.3 645.8 C 766.4 647.3 770.8 649.3 776.8 649.5999999999999 C 779.8 649.6999999999999 783.4 649.8 785.4 647.6999999999999 C 786.5 646.7 787.3 645 786.9 643.3 z" stroke-linecap="round" />
</g>
<g transform="matrix(1 0 0 1 820.96 664.85)"  >
<path style="stroke: none; stroke-width: 1; stroke-dasharray: none; stroke-linecap: butt; stroke-dashoffset: 0; stroke-linejoin: miter; stroke-miterlimit: 4; fill: rgb(219,44,98); fill-rule: nonzero; opacity: 1;" vector-effect="non-scaling-stroke"  transform=" translate(-780.96, -624.85)" d="M 781.6 622.9 C 780.9 624 779.7 624.8 778.2 625 C 780.4000000000001 624.7 782.5 625.7 783.6 627.2 C 783.8000000000001 626.5 783.7 625.9000000000001 783.7 625.6 C 783.5 624.3000000000001 782.7 623.2 781.8000000000001 622.5 C 781.7 622.6 781.7 622.7 781.6 622.9 z" stroke-linecap="round" />
</g>
<g transform="matrix(1 0 0 1 809.02 671.04)"  >
<path style="stroke: none; stroke-width: 1; stroke-dasharray: none; stroke-linecap: butt; stroke-dashoffset: 0; stroke-linejoin: miter; stroke-miterlimit: 4; fill: rgb(249,98,145); fill-rule: nonzero; opacity: 1;" vector-effect="non-scaling-stroke"  transform=" translate(-769.02, -631.04)" d="M 754.3 640 C 754.5999999999999 640.2 754.9 640.4 755.1999999999999 640.7 C 756.4999999999999 638.9000000000001 757.8 637.5 758.9 636.4000000000001 C 761.3 633.9000000000001 764.6999999999999 630.5000000000001 770.1999999999999 628.1000000000001 C 772.9999999999999 626.9000000000001 776.3 625.6000000000001 778.9 626.8000000000002 C 779.9 627.3000000000002 781 628.3000000000002 781.5 629.6000000000001 C 782.2 629.2000000000002 782.8 628.7000000000002 783.2 628.1000000000001 C 783.8000000000001 627.1000000000001 783.8000000000001 626.0000000000001 783.7 625.5000000000001 C 783.5 623.8000000000001 782.1 622.5000000000001 780.9000000000001 621.9000000000001 C 778.3000000000001 620.6000000000001 775.0000000000001 622.0000000000001 772.2 623.2 C 766.7 625.5 763.3000000000001 629 760.9000000000001 631.5 C 759.1 633.4 756.6 636.2 754.3 640 C 754.3 640 754.3 640 754.3 640 C 754.3 640 754.3 640 754.3 640 z" stroke-linecap="round" />
</g>
<g transform="matrix(1 0 0 1 812.53 675.51)"  >
<path style="stroke: rgb(61,9,56); stroke-width: 4; stroke-dasharray: none; stroke-linecap: round; stroke-dashoffset: 0; stroke-linejoin: round; stroke-miterlimit: 10; fill: none; fill-rule: nonzero; opacity: 1;" vector-effect="non-scaling-stroke"  transform=" translate(-772.53, -635.51)" d="M 787.4 647.7 C 788.3 646.7 789.1 645 788.8 643.3000000000001 C 788.6999999999999 642.9000000000001 788.4 641.8000000000001 787.4 641.1 C 786.4 640.3000000000001 785 640 783.5 640.3000000000001 C 786.5 639.6 788.4 636.9000000000001 788 634.3000000000001 C 788 634.3000000000001 788 634.3000000000001 788 634.3000000000001 C 788 634.3000000000001 788 634.3000000000001 788 634.3000000000001 C 787.5 631.7 784.7 629.8000000000001 781.7 630.2 C 783.2 630 784.4000000000001 629.2 785.1 628.1 C 785.7 627.1 785.7 626 785.6 625.5 C 785.4 623.8 784 622.5 782.8000000000001 621.9 C 780.2 620.6 776.9000000000001 622 774.1 623.1999999999999 C 768.6 625.4999999999999 765.2 628.9999999999999 762.8000000000001 631.4999999999999 C 761.0000000000001 633.3999999999999 758.5000000000001 636.1999999999999 756.2 640.0999999999999 C 756.2 640.0999999999999 756.2 640.0999999999999 756.2 640.0999999999999 C 756.2 640.0999999999999 756.2 640.0999999999999 756.2 640.0999999999999 C 759.7 642.8999999999999 763 644.6999999999999 765.3000000000001 645.8 C 768.4000000000001 647.3 772.8000000000001 649.3 778.8000000000001 649.5999999999999 C 781.8 649.7 785.4 649.8 787.4 647.7 z" stroke-linecap="round" />
</g>
<g transform="matrix(1 0 0 1 694.75 666.16)"  >
<path style="stroke: none; stroke-width: 1; stroke-dasharray: none; stroke-linecap: butt; stroke-dashoffset: 0; stroke-linejoin: miter; stroke-miterlimit: 4; fill: rgb(241,203,156); fill-rule: nonzero; opacity: 1;" vector-effect="non-scaling-stroke"  transform=" translate(-654.75, -626.16)" d="M 756.1 640.1 C 756.1 640.1 710.6 644.2 664 610.5 C 648.1 599 637.7 591.6 630.9 587 C 627.6 584 623.8 581.4 619.6 579.5 C 618.1 578.6 618.2 578.8 618.2 578.8 L 618.2 578.8 C 612.6 576.4 606.3000000000001 575 599.8000000000001 575 C 574.2 575 553.4000000000001 595.8 553.4000000000001 621.4 C 553.4000000000001 638.8 563.0000000000001 654 577.2 661.9 L 577.2 661.9 C 577.2 661.9 577.3000000000001 662 577.5 662 C 579.3 663 581.2 663.8 583.1 664.6 C 604.1 673.4 678.3 697.9 756.1 640.1 z" stroke-linecap="round" />
</g>
<g transform="matrix(1 0 0 1 694.75 649.65)"  >
<path style="stroke: none; stroke-width: 1; stroke-dasharray: none; stroke-linecap: butt; stroke-dashoffset: 0; stroke-linejoin: miter; stroke-miterlimit: 4; fill: rgb(248,228,193); fill-rule: nonzero; opacity: 1;" vector-effect="non-scaling-stroke"  transform=" translate(-654.75, -609.65)" d="M 599.8 580.4 C 606.3 580.4 612.5999999999999 581.8 618.1999999999999 584.1999999999999 L 618.1999999999999 584.1999999999999 C 618.1999999999999 584.1999999999999 618.0999999999999 583.9999999999999 619.5999999999999 584.9 C 623.6999999999999 586.9 627.4999999999999 589.4 630.8999999999999 592.4 C 637.6999999999998 597.1 647.9999999999999 604.4 663.9999999999999 615.9 C 700.1999999999999 642 737.9999999999999 643.1 752.0999999999999 643.3 C 754.1999999999999 641.8 753.9999999999999 642.6999999999999 756.0999999999999 641.0999999999999 C 756.0999999999999 641.0999999999999 710.5999999999999 645.1999999999999 663.9999999999999 611.4999999999999 C 648.0999999999999 599.9999999999999 637.6999999999999 592.5999999999999 630.8999999999999 587.9999999999999 C 627.5999999999999 584.9999999999999 623.7999999999998 582.3999999999999 619.5999999999999 580.4999999999999 C 618.0999999999999 579.5999999999999 618.1999999999999 579.7999999999998 618.1999999999999 579.7999999999998 L 618.1999999999999 579.7999999999998 C 612.5999999999999 577.3999999999999 606.3 575.9999999999999 599.8 575.9999999999999 C 574.1999999999999 575.9999999999999 553.4 596.7999999999998 553.4 622.3999999999999 C 553.4 623.0999999999999 553.4 623.6999999999998 553.5 624.2999999999998 C 554.8 599.8 575 580.4 599.8 580.4 z" stroke-linecap="round" />
</g>
<g transform="matrix(1 0 0 1 694.65 680.38)"  >
<path style="stroke: none; stroke-width: 1; stroke-dasharray: none; stroke-linecap: butt; stroke-dashoffset: 0; stroke-linejoin: miter; stroke-miterlimit: 4; fill: rgb(212,144,127); fill-rule: nonzero; opacity: 1;" vector-effect="non-scaling-stroke"  transform=" translate(-654.65, -640.38)" d="M 744.8 640 C 672.3 685.3 605.5999999999999 663.3 585.9 654.9 C 584 654.1999999999999 582.1 653.3 580.3 652.3 C 580.0999999999999 652.1999999999999 580 652.1999999999999 580 652.1999999999999 L 580 652.1999999999999 C 565.8 644.3 556.2 629.0999999999999 556.2 611.6999999999999 C 556.2 608.9 556.5 606.1999999999999 556.9000000000001 603.4999999999999 C 554.6000000000001 608.9999999999999 553.3000000000001 614.9999999999999 553.3000000000001 621.2999999999998 C 553.3000000000001 638.6999999999998 562.9000000000001 653.8999999999999 577.1 661.7999999999998 L 577.1 661.7999999999998 C 577.1 661.7999999999998 577.2 661.8999999999999 577.4 661.8999999999999 C 579.1999999999999 662.8999999999999 581.1 663.6999999999998 583 664.4999999999999 C 604 673.3999999999999 678.2 697.7999999999998 756 639.9999999999999 C 756.1 640.1 751.9 640.4 744.8 640 z" stroke-linecap="round" />
</g>
<g transform="matrix(1 0 0 1 694.75 666.16)"  >
<path style="stroke: rgb(61,9,56); stroke-width: 4; stroke-dasharray: none; stroke-linecap: round; stroke-dashoffset: 0; stroke-linejoin: round; stroke-miterlimit: 10; fill: none; fill-rule: nonzero; opacity: 1;" vector-effect="non-scaling-stroke"  transform=" translate(-654.75, -626.16)" d="M 756.1 640.1 C 756.1 640.1 710.6 644.2 664 610.5 C 648.1 599 637.7 591.6 630.9 587 C 627.6 584 623.8 581.4 619.6 579.5 C 618.1 578.6 618.2 578.8 618.2 578.8 L 618.2 578.8 C 612.6 576.4 606.3000000000001 575 599.8000000000001 575 C 574.2 575 553.4000000000001 595.8 553.4000000000001 621.4 C 553.4000000000001 638.8 563.0000000000001 654 577.2 661.9 L 577.2 661.9 C 577.2 661.9 577.3000000000001 662 577.5 662 C 579.3 663 581.2 663.8 583.1 664.6 C 604.1 673.4 678.3 697.9 756.1 640.1 z" stroke-linecap="round" />
</g>
<g transform="matrix(1 0 0 1 690.87 707.65)"  >
<path style="stroke: none; stroke-width: 1; stroke-dasharray: none; stroke-linecap: butt; stroke-dashoffset: 0; stroke-linejoin: miter; stroke-miterlimit: 4; fill: rgb(239,171,137); fill-rule: nonzero; opacity: 1;" vector-effect="non-scaling-stroke"  transform=" translate(-650.87, -667.65)" d="M 723.2 682.9 C 714.1 679.9 694.4000000000001 671.8 676.1 653.5 C 651.2 628.6 635 623.2 627.5 622.2 C 627.5 622.2 627.5 622.2 627.5 622.2 C 624.9 621.7 622.3 621.5 619.6 621.5 C 595.8000000000001 621.5 576.4 640.8 576.4 664.7 C 576.4 679.8000000000001 584.1999999999999 693.1 595.9 700.8000000000001 L 595.9 700.8000000000001 C 595.9 700.8000000000001 596.3 701.0000000000001 596.9 701.4000000000001 C 597.1 701.5000000000001 597.1999999999999 701.6000000000001 597.4 701.7 C 601.8 704.4000000000001 615.4 712.3000000000001 626.4 713.8000000000001 C 638.6 713.8000000000001 626.4 702.0000000000001 626.4 702.0000000000001 C 626.4 702.0000000000001 636.1999999999999 710.5000000000001 646.6999999999999 710.1000000000001 C 662.1999999999999 709.6000000000001 650.4 698.4000000000001 650.4 698.4000000000001 C 650.4 698.4000000000001 660.9 707.9000000000001 673.9 703.8000000000001 C 682.1 701.2 677.9 697.1 673.6999999999999 694.3000000000001 C 679.9999999999999 697.4000000000001 690.9 701.5000000000001 697.5999999999999 696.5000000000001 C 702.3 693.0000000000001 697.0999999999999 689.2000000000002 692.9999999999999 687.0000000000001 C 698.4999999999999 689.3000000000001 708.3999999999999 692.7000000000002 715.7999999999998 691.1000000000001 C 719.2999999999998 690.3000000000002 721.7999999999998 689.4000000000001 723.6999999999998 688.5000000000001 C 726.1 687.4 725.8 683.8 723.2 682.9 z" stroke-linecap="round" />
</g>
<g transform="matrix(1 0 0 1 644.01 724.5)"  >
<path style="stroke: none; stroke-width: 1; stroke-dasharray: none; stroke-linecap: butt; stroke-dashoffset: 0; stroke-linejoin: miter; stroke-miterlimit: 4; fill: rgb(212,144,127); fill-rule: nonzero; opacity: 1;" vector-effect="non-scaling-stroke"  transform=" translate(-604.01, -684.5)" d="M 627.3 704.7 C 616.3 703.2 602.6999999999999 695.3000000000001 598.3 692.6 C 598.0999999999999 692.5 598 692.4 597.8 692.3000000000001 C 597.1999999999999 691.9000000000001 596.8 691.7 596.8 691.7 L 596.8 691.7 C 585.0999999999999 684 577.3 670.7 577.3 655.6 C 577.3 655.5 577.3 655.4 577.3 655.3000000000001 C 576.5999999999999 658.3000000000001 576.3 661.4000000000001 576.3 664.6 C 576.3 679.7 584.0999999999999 693 595.8 700.7 L 595.8 700.7 C 595.8 700.7 596.1999999999999 700.9000000000001 596.8 701.3000000000001 C 597 701.4000000000001 597.0999999999999 701.5000000000001 597.3 701.6 C 601.6999999999999 704.3000000000001 615.3 712.2 626.3 713.7 C 634.6999999999999 713.7 631.5 708.1 628.8 704.6 C 628.3 704.7 627.8 704.7 627.3 704.7 z" stroke-linecap="round" />
</g>
<g transform="matrix(1 0 0 1 746.17 726.46)"  >
<path style="stroke: none; stroke-width: 1; stroke-dasharray: none; stroke-linecap: butt; stroke-dashoffset: 0; stroke-linejoin: miter; stroke-miterlimit: 4; fill: rgb(212,144,127); fill-rule: nonzero; opacity: 1;" vector-effect="non-scaling-stroke"  transform=" translate(-706.17, -686.46)" d="M 723.2 682.9 C 722.1 682.5 720.8000000000001 682.1 719.3000000000001 681.5 C 718.5000000000001 681.7 717.3000000000001 681.4 716.7 682.1 C 713 687.3000000000001 692.4000000000001 684.8000000000001 687 682.5 C 691.1 684.7 690.3 685.8 698.6 687.4 C 699.3000000000001 687.5 697.5 688.1 696.9 688.4 C 702.5 690.4 709.9 692.3 715.8 691 C 719.3 690.2 721.8 689.3 723.6999999999999 688.4 C 726.1 687.4 725.8 683.8 723.2 682.9 z" stroke-linecap="round" />
</g>
<g transform="matrix(1 0 0 1 677.54 741.8)"  >
<path style="stroke: none; stroke-width: 1; stroke-dasharray: none; stroke-linecap: butt; stroke-dashoffset: 0; stroke-linejoin: miter; stroke-miterlimit: 4; fill: rgb(212,144,127); fill-rule: nonzero; opacity: 1;" vector-effect="non-scaling-stroke"  transform=" translate(-637.53, -701.8)" d="M 647.6 701 C 637 701.4 622.1 693.6 622.1 693.6 C 619.8000000000001 695.3000000000001 618.6 693.1 629.7 704.4 C 633.5 706.9 639.8000000000001 710.1999999999999 646.5 710 C 657.8 709.6 654.6 703.6 652 700.4 C 651 700.8 649.5 701 647.6 701 z" stroke-linecap="round" />
</g>
<g transform="matrix(1 0 0 1 702.42 738.21)"  >
<path style="stroke: none; stroke-width: 1; stroke-dasharray: none; stroke-linecap: butt; stroke-dashoffset: 0; stroke-linejoin: miter; stroke-miterlimit: 4; fill: rgb(212,144,127); fill-rule: nonzero; opacity: 1;" vector-effect="non-scaling-stroke"  transform=" translate(-662.42, -698.21)" d="M 674.5 694.9 C 661.6 698.6999999999999 646.3 691.6 646.3 691.6 C 646.3 691.6 647.1999999999999 695.3000000000001 652.6999999999999 700.2 C 656.4999999999999 702.7 664.4999999999999 706.7 673.8 703.8000000000001 C 681.5 701.4 678.4 697.6 674.5 694.9 z" stroke-linecap="round" />
</g>
<g transform="matrix(1 0 0 1 723.36 733.11)"  >
<path style="stroke: none; stroke-width: 1; stroke-dasharray: none; stroke-linecap: butt; stroke-dashoffset: 0; stroke-linejoin: miter; stroke-miterlimit: 4; fill: rgb(212,144,127); fill-rule: nonzero; opacity: 1;" vector-effect="non-scaling-stroke"  transform=" translate(-683.36, -693.11)" d="M 696 688.9 C 690.7 693.6 672.9 690.1 667.3 687.4 C 671.5 690.1 671.5 692.3 674.8 694.8 C 674.8 694.8 674.6999999999999 694.8 674.6999999999999 694.8 C 681.0999999999999 697.8 691.1999999999999 701.1999999999999 697.4999999999999 696.5 C 701.1 693.9 699.1 691.1 696 688.9 z" stroke-linecap="round" />
</g>
<g transform="matrix(1 0 0 1 690.87 707.65)"  >
<path style="stroke: rgb(61,9,56); stroke-width: 4; stroke-dasharray: none; stroke-linecap: round; stroke-dashoffset: 0; stroke-linejoin: round; stroke-miterlimit: 10; fill: none; fill-rule: nonzero; opacity: 1;" vector-effect="non-scaling-stroke"  transform=" translate(-650.87, -667.65)" d="M 723.2 682.9 C 714.1 679.9 694.4000000000001 671.8 676.1 653.5 C 651.2 628.6 635 623.2 627.5 622.2 C 627.5 622.2 627.5 622.2 627.5 622.2 C 624.9 621.7 622.3 621.5 619.6 621.5 C 595.8000000000001 621.5 576.4 640.8 576.4 664.7 C 576.4 679.8000000000001 584.1999999999999 693.1 595.9 700.8000000000001 L 595.9 700.8000000000001 C 595.9 700.8000000000001 596.3 701.0000000000001 596.9 701.4000000000001 C 597.1 701.5000000000001 597.1999999999999 701.6000000000001 597.4 701.7 C 601.8 704.4000000000001 615.4 712.3000000000001 626.4 713.8000000000001 C 638.6 713.8000000000001 626.4 702.0000000000001 626.4 702.0000000000001 C 626.4 702.0000000000001 636.1999999999999 710.5000000000001 646.6999999999999 710.1000000000001 C 662.1999999999999 709.6000000000001 650.4 698.4000000000001 650.4 698.4000000000001 C 650.4 698.4000000000001 660.9 707.9000000000001 673.9 703.8000000000001 C 682.1 701.2 677.9 697.1 673.6999999999999 694.3000000000001 C 679.9999999999999 697.4000000000001 690.9 701.5000000000001 697.5999999999999 696.5000000000001 C 702.3 693.0000000000001 697.0999999999999 689.2000000000002 692.9999999999999 687.0000000000001 C 698.4999999999999 689.3000000000001 708.3999999999999 692.7000000000002 715.7999999999998 691.1000000000001 C 719.2999999999998 690.3000000000002 721.7999999999998 689.4000000000001 723.6999999999998 688.5000000000001 C 726.1 687.4 725.8 683.8 723.2 682.9 z" stroke-linecap="round" />
</g>
<g transform="matrix(1 0 0 1 632.2 646.9)"  >
<path style="stroke: rgb(61,9,56); stroke-width: 4; stroke-dasharray: none; stroke-linecap: round; stroke-dashoffset: 0; stroke-linejoin: round; stroke-miterlimit: 10; fill: none; fill-rule: nonzero; opacity: 1;" vector-effect="non-scaling-stroke"  transform=" translate(-592.2, -606.9)" d="M 581.1 601.4 C 581.1 601.4 581.7 612.4 591.9 612.4 C 600.8 612.4 603.3 608.1999999999999 603.3 608.1999999999999" stroke-linecap="round" />
</g>
<g transform="matrix(1 0 0 1 620.2 647.5)" id="XMLID_58_"  >
<line style="stroke: rgb(61,9,56); stroke-width: 4; stroke-dasharray: none; stroke-linecap: round; stroke-dashoffset: 0; stroke-linejoin: round; stroke-miterlimit: 10; fill: none; fill-rule: nonzero; opacity: 1;" vector-effect="non-scaling-stroke"  x1="-2.5" y1="0.6000000000000227" x2="2.5" y2="-0.6000000000000227" />
</g>
<g transform="matrix(1 0 0 1 623.9 651.9)" id="XMLID_59_"  >
<line style="stroke: rgb(61,9,56); stroke-width: 4; stroke-dasharray: none; stroke-linecap: round; stroke-dashoffset: 0; stroke-linejoin: round; stroke-miterlimit: 10; fill: none; fill-rule: nonzero; opacity: 1;" vector-effect="non-scaling-stroke"  x1="-1.1999999999999886" y1="1.8000000000000114" x2="1.1999999999999886" y2="-1.8000000000000114" />
</g>
<g transform="matrix(1 0 0 1 630.3 654.45)" id="XMLID_60_"  >
<line style="stroke: rgb(61,9,56); stroke-width: 4; stroke-dasharray: none; stroke-linecap: round; stroke-dashoffset: 0; stroke-linejoin: round; stroke-miterlimit: 10; fill: none; fill-rule: nonzero; opacity: 1;" vector-effect="non-scaling-stroke"  x1="0" y1="-2.0500000000000114" x2="0" y2="2.0500000000000114" />
</g>
<g transform="matrix(1 0 0 1 639.55 653.95)" id="XMLID_61_"  >
<line style="stroke: rgb(61,9,56); stroke-width: 4; stroke-dasharray: none; stroke-linecap: round; stroke-dashoffset: 0; stroke-linejoin: round; stroke-miterlimit: 10; fill: none; fill-rule: nonzero; opacity: 1;" vector-effect="non-scaling-stroke"  x1="-0.9499999999999886" y1="-2.5500000000000114" x2="0.9499999999999886" y2="2.5500000000000114" />
</g>
<g transform="matrix(1 0 0 1 649.4 682.67)"  >
<path style="stroke: rgb(61,9,56); stroke-width: 3; stroke-dasharray: none; stroke-linecap: round; stroke-dashoffset: 0; stroke-linejoin: round; stroke-miterlimit: 10; fill: none; fill-rule: nonzero; opacity: 1;" vector-effect="non-scaling-stroke"  transform=" translate(-609.4, -642.67)" d="M 605.8 641.8 C 605.8 641.8 609.1999999999999 645.6999999999999 613 641.8" stroke-linecap="round" />
</g>
<g transform="matrix(1 0 0 1 639.25 698.05)"  >
<path style="stroke: rgb(61,9,56); stroke-width: 3; stroke-dasharray: none; stroke-linecap: round; stroke-dashoffset: 0; stroke-linejoin: round; stroke-miterlimit: 10; fill: none; fill-rule: nonzero; opacity: 1;" vector-effect="non-scaling-stroke"  transform=" translate(-599.25, -658.05)" d="M 594.4 659.6 C 594.4 659.6 601.3 662.4 604.1 655.9" stroke-linecap="round" />
</g>
<g transform="matrix(1 0 0 1 638.5 715.4)"  >
<path style="stroke: rgb(61,9,56); stroke-width: 3; stroke-dasharray: none; stroke-linecap: round; stroke-dashoffset: 0; stroke-linejoin: round; stroke-miterlimit: 10; fill: none; fill-rule: nonzero; opacity: 1;" vector-effect="non-scaling-stroke"  transform=" translate(-598.5, -675.4)" d="M 595.1 676.5 C 595.1 676.5 600 678.4 601.9 673.9" stroke-linecap="round" />
</g>
<g transform="matrix(1 0 0 1 679.65 695.33)"  >
<path style="stroke: rgb(61,9,56); stroke-width: 3; stroke-dasharray: none; stroke-linecap: round; stroke-dashoffset: 0; stroke-linejoin: round; stroke-miterlimit: 10; fill: none; fill-rule: nonzero; opacity: 1;" vector-effect="non-scaling-stroke"  transform=" translate(-639.65, -655.33)" d="M 636 655 C 636 655 640.2 658.2 643.3 654.4" stroke-linecap="round" />
</g>
<g transform="matrix(1 0 0 1 692.15 719.83)"  >
<path style="stroke: rgb(61,9,56); stroke-width: 3; stroke-dasharray: none; stroke-linecap: round; stroke-dashoffset: 0; stroke-linejoin: round; stroke-miterlimit: 10; fill: none; fill-rule: nonzero; opacity: 1;" vector-effect="non-scaling-stroke"  transform=" translate(-652.15, -679.83)" d="M 648.5 679.5 C 648.5 679.5 652.7 682.7 655.8 678.9" stroke-linecap="round" />
</g>
<g transform="matrix(1 0 0 1 701.25 706.33)"  >
<path style="stroke: rgb(61,9,56); stroke-width: 3; stroke-dasharray: none; stroke-linecap: round; stroke-dashoffset: 0; stroke-linejoin: round; stroke-miterlimit: 10; fill: none; fill-rule: nonzero; opacity: 1;" vector-effect="non-scaling-stroke"  transform=" translate(-661.25, -666.33)" d="M 657.6 666 C 657.6 666 661.8000000000001 669.2 664.9 665.4" stroke-linecap="round" />
</g>
<g transform="matrix(1 0 0 1 674.95 708.53)"  >
<path style="stroke: rgb(61,9,56); stroke-width: 3; stroke-dasharray: none; stroke-linecap: round; stroke-dashoffset: 0; stroke-linejoin: round; stroke-miterlimit: 10; fill: none; fill-rule: nonzero; opacity: 1;" vector-effect="non-scaling-stroke"  transform=" translate(-634.95, -668.53)" d="M 631.3 668.2 C 631.3 668.2 635.5 671.4000000000001 638.5999999999999 667.6" stroke-linecap="round" />
</g>
<g transform="matrix(1 0 0 1 711.15 643.33)"  >
<path style="stroke: rgb(61,9,56); stroke-width: 3; stroke-dasharray: none; stroke-linecap: round; stroke-dashoffset: 0; stroke-linejoin: round; stroke-miterlimit: 10; fill: none; fill-rule: nonzero; opacity: 1;" vector-effect="non-scaling-stroke"  transform=" translate(-671.15, -603.33)" d="M 667.5 603 C 667.5 603 671.7 606.2 674.8 602.4" stroke-linecap="round" />
</g>
<g transform="matrix(1 0 0 1 739.65 665.93)"  >
<path style="stroke: rgb(61,9,56); stroke-width: 3; stroke-dasharray: none; stroke-linecap: round; stroke-dashoffset: 0; stroke-linejoin: round; stroke-miterlimit: 10; fill: none; fill-rule: nonzero; opacity: 1;" vector-effect="non-scaling-stroke"  transform=" translate(-699.65, -625.93)" d="M 696 625.6 C 696 625.6 700.2 628.8000000000001 703.3 625" stroke-linecap="round" />
</g>
<g transform="matrix(1 0 0 1 739.5 654.04)"  >
<path style="stroke: rgb(61,9,56); stroke-width: 3; stroke-dasharray: none; stroke-linecap: round; stroke-dashoffset: 0; stroke-linejoin: round; stroke-miterlimit: 10; fill: none; fill-rule: nonzero; opacity: 1;" vector-effect="non-scaling-stroke"  transform=" translate(-699.5, -614.04)" d="M 696.1 615.2 C 696.1 615.2 701 617.1 702.9 612.5" stroke-linecap="round" />
</g>
<g transform="matrix(1 0 0 1 724.25 650.86)"  >
<path style="stroke: rgb(61,9,56); stroke-width: 3; stroke-dasharray: none; stroke-linecap: round; stroke-dashoffset: 0; stroke-linejoin: round; stroke-miterlimit: 10; fill: none; fill-rule: nonzero; opacity: 1;" vector-effect="non-scaling-stroke"  transform=" translate(-684.25, -610.86)" d="M 681.3 613 C 681.3 613 686.5 613.6 687.1999999999999 608.7" stroke-linecap="round" />
</g>
<g transform="matrix(1 0 0 1 660.95 719.86)"  >
<path style="stroke: rgb(61,9,56); stroke-width: 3; stroke-dasharray: none; stroke-linecap: round; stroke-dashoffset: 0; stroke-linejoin: round; stroke-miterlimit: 10; fill: none; fill-rule: nonzero; opacity: 1;" vector-effect="non-scaling-stroke"  transform=" translate(-620.95, -679.86)" d="M 617.6 681.1 C 617.6 681.1 622.6 682.8000000000001 624.3000000000001 678.3000000000001" stroke-linecap="round" />
</g>
<g transform="matrix(1 0 0 1 660.5 693.67)"  >
<path style="stroke: rgb(61,9,56); stroke-width: 3; stroke-dasharray: none; stroke-linecap: round; stroke-dashoffset: 0; stroke-linejoin: round; stroke-miterlimit: 10; fill: none; fill-rule: nonzero; opacity: 1;" vector-effect="non-scaling-stroke"  transform=" translate(-620.5, -653.67)" d="M 615.9 653.5 C 615.9 653.5 621.3 657.4 625.1 652.4" stroke-linecap="round" />
</g>
<g transform="matrix(1 0 0 1 657.6 706.27)"  >
<path style="stroke: rgb(61,9,56); stroke-width: 3; stroke-dasharray: none; stroke-linecap: round; stroke-dashoffset: 0; stroke-linejoin: round; stroke-miterlimit: 10; fill: none; fill-rule: nonzero; opacity: 1;" vector-effect="non-scaling-stroke"  transform=" translate(-617.6, -666.27)" d="M 613 666.1 C 613 666.1 618.4 670 622.2 665" stroke-linecap="round" />
</g>
<g transform="matrix(1 0 0 1 663.45 738.1)"  >
<path style="stroke: rgb(61,9,56); stroke-width: 4; stroke-dasharray: none; stroke-linecap: round; stroke-dashoffset: 0; stroke-linejoin: round; stroke-miterlimit: 10; fill: none; fill-rule: nonzero; opacity: 1;" vector-effect="non-scaling-stroke"  transform=" translate(-623.45, -698.1)" d="M 620.6 694.3 C 620.6 694.3 621.4 697 626.3000000000001 701.9" stroke-linecap="round" />
</g>
<g transform="matrix(1 0 0 1 687.65 735.4)"  >
<path style="stroke: rgb(61,9,56); stroke-width: 4; stroke-dasharray: none; stroke-linecap: round; stroke-dashoffset: 0; stroke-linejoin: round; stroke-miterlimit: 10; fill: none; fill-rule: nonzero; opacity: 1;" vector-effect="non-scaling-stroke"  transform=" translate(-647.65, -695.4)" d="M 650.3 698.4 C 650.3 698.4 648.1999999999999 697.1 645 692.4" stroke-linecap="round" />
</g>
<g transform="matrix(1 0 0 1 709.8 730.85)"  >
<path style="stroke: rgb(61,9,56); stroke-width: 4; stroke-dasharray: none; stroke-linecap: round; stroke-dashoffset: 0; stroke-linejoin: round; stroke-miterlimit: 10; fill: none; fill-rule: nonzero; opacity: 1;" vector-effect="non-scaling-stroke"  transform=" translate(-669.8, -690.85)" d="M 673.7 694.3 C 673.7 694.3 669.4000000000001 691.3 665.9000000000001 687.4" stroke-linecap="round" />
</g>
<g transform="matrix(1 0 0 1 728.75 724.8)"  >
<path style="stroke: rgb(61,9,56); stroke-width: 4; stroke-dasharray: none; stroke-linecap: round; stroke-dashoffset: 0; stroke-linejoin: round; stroke-miterlimit: 10; fill: none; fill-rule: nonzero; opacity: 1;" vector-effect="non-scaling-stroke"  transform=" translate(-688.75, -684.8)" d="M 693 687.1 C 693 687.1 686.3 684.3000000000001 684.5 682.5" stroke-linecap="round" />
</g>
<g transform="matrix(1 0 0 1 572.3 554.35)"  >
<path style="stroke: none; stroke-width: 1; stroke-dasharray: none; stroke-linecap: butt; stroke-dashoffset: 0; stroke-linejoin: miter; stroke-miterlimit: 4; fill: rgb(240,64,111); fill-rule: nonzero; opacity: 1;" vector-effect="non-scaling-stroke"  transform=" translate(-532.3, -514.35)" d="M 523.5 503.2 L 523.5 503.2 L 523.5 524.7 C 523 524.6 522.4 524.5 521.8 524.5 C 517.9 524.5 514.6999999999999 527.2 514.6999999999999 530.6 C 514.6999999999999 534 517.9 536.7 521.8 536.7 C 525.6999999999999 536.7 528.9 534 528.9 530.6 L 528.9 506.90000000000003 L 544.5 500.3 L 544.5 517.4 C 544 517.3 543.4 517.1999999999999 542.8 517.1999999999999 C 538.9 517.1999999999999 535.6999999999999 519.9 535.6999999999999 523.3 C 535.6999999999999 526.6999999999999 538.9 529.4 542.8 529.4 C 546.6999999999999 529.4 549.9 526.6999999999999 549.9 523.3 L 549.9 498 L 549.9 495.9 L 549.9 492 L 523.5 503.2 z" stroke-linecap="round" />
</g>
<g transform="matrix(1 0 0 1 572.3 554.35)"  >
<path style="stroke: rgb(61,9,56); stroke-width: 2; stroke-dasharray: none; stroke-linecap: round; stroke-dashoffset: 0; stroke-linejoin: round; stroke-miterlimit: 10; fill: none; fill-rule: nonzero; opacity: 1;" vector-effect="non-scaling-stroke"  transform=" translate(-532.3, -514.35)" d="M 523.5 503.2 L 523.5 503.2 L 523.5 524.7 C 523 524.6 522.4 524.5 521.8 524.5 C 517.9 524.5 514.6999999999999 527.2 514.6999999999999 530.6 C 514.6999999999999 534 517.9 536.7 521.8 536.7 C 525.6999999999999 536.7 528.9 534 528.9 530.6 L 528.9 506.90000000000003 L 544.5 500.3 L 544.5 517.4 C 544 517.3 543.4 517.1999999999999 542.8 517.1999999999999 C 538.9 517.1999999999999 535.6999999999999 519.9 535.6999999999999 523.3 C 535.6999999999999 526.6999999999999 538.9 529.4 542.8 529.4 C 546.6999999999999 529.4 549.9 526.6999999999999 549.9 523.3 L 549.9 498 L 549.9 495.9 L 549.9 492 L 523.5 503.2 z" stroke-linecap="round" />
</g>
<g transform="matrix(1 0 0 1 570.01 474.94)"  >
<path style="stroke: none; stroke-width: 1; stroke-dasharray: none; stroke-linecap: butt; stroke-dashoffset: 0; stroke-linejoin: miter; stroke-miterlimit: 4; fill: rgb(33,232,166); fill-rule: nonzero; opacity: 1;" vector-effect="non-scaling-stroke"  transform=" translate(-530.01, -434.94)" d="M 522.2 415.5 L 522.2 415.5 L 515 441.2 C 514.7 442.4 513.4 443 512.2 442.7 C 512.2 442.7 512.2 442.7 512.2 442.7 C 507.1 441.3 501.90000000000003 443.7 500.70000000000005 448.09999999999997 C 499.50000000000006 452.49999999999994 502.6 457.2 507.70000000000005 458.59999999999997 C 512.8000000000001 459.99999999999994 518 457.59999999999997 519.2 453.2 L 527.4000000000001 423.59999999999997 C 527.6000000000001 422.79999999999995 528.4000000000001 422.09999999999997 529.2 421.99999999999994 L 547.2 419.69999999999993 C 548.8000000000001 419.49999999999994 550 420.8999999999999 549.6 422.49999999999994 L 544.9 439.29999999999995 C 544.6 440.49999999999994 543.3 441.09999999999997 542.1 440.79999999999995 C 542.1 440.79999999999995 542.1 440.79999999999995 542.1 440.79999999999995 C 537 439.4 531.8000000000001 441.79999999999995 530.6 446.19999999999993 C 529.4 450.5999999999999 532.5 455.29999999999995 537.6 456.69999999999993 C 542.7 458.0999999999999 547.9 455.69999999999993 549.1 451.29999999999995 L 558.3000000000001 418.29999999999995 L 559.0000000000001 415.59999999999997 L 559.5000000000001 413.7 C 559.9000000000001 412.2 558.7000000000002 410.7 557.1000000000001 410.9 L 522.2 415.5 z" stroke-linecap="round" />
</g>
<g transform="matrix(1 0 0 1 570.01 474.94)"  >
<path style="stroke: rgb(61,9,56); stroke-width: 2; stroke-dasharray: none; stroke-linecap: round; stroke-dashoffset: 0; stroke-linejoin: round; stroke-miterlimit: 10; fill: none; fill-rule: nonzero; opacity: 1;" vector-effect="non-scaling-stroke"  transform=" translate(-530.01, -434.94)" d="M 522.2 415.5 L 522.2 415.5 L 515 441.2 C 514.7 442.4 513.4 443 512.2 442.7 C 512.2 442.7 512.2 442.7 512.2 442.7 C 507.1 441.3 501.90000000000003 443.7 500.70000000000005 448.09999999999997 C 499.50000000000006 452.49999999999994 502.6 457.2 507.70000000000005 458.59999999999997 C 512.8000000000001 459.99999999999994 518 457.59999999999997 519.2 453.2 L 527.4000000000001 423.59999999999997 C 527.6000000000001 422.79999999999995 528.4000000000001 422.09999999999997 529.2 421.99999999999994 L 547.2 419.69999999999993 C 548.8000000000001 419.49999999999994 550 420.8999999999999 549.6 422.49999999999994 L 544.9 439.29999999999995 C 544.6 440.49999999999994 543.3 441.09999999999997 542.1 440.79999999999995 C 542.1 440.79999999999995 542.1 440.79999999999995 542.1 440.79999999999995 C 537 439.4 531.8000000000001 441.79999999999995 530.6 446.19999999999993 C 529.4 450.5999999999999 532.5 455.29999999999995 537.6 456.69999999999993 C 542.7 458.0999999999999 547.9 455.69999999999993 549.1 451.29999999999995 L 558.3000000000001 418.29999999999995 L 559.0000000000001 415.59999999999997 L 559.5000000000001 413.7 C 559.9000000000001 412.2 558.7000000000002 410.7 557.1000000000001 410.9 L 522.2 415.5 z" stroke-linecap="round" />
</g>
<g transform="matrix(1 0 0 1 572.3 602.79)"  >
<path style="stroke: none; stroke-width: 1; stroke-dasharray: none; stroke-linecap: butt; stroke-dashoffset: 0; stroke-linejoin: miter; stroke-miterlimit: 4; fill: rgb(227,137,128); fill-rule: nonzero; opacity: 1;" vector-effect="non-scaling-stroke"  transform=" translate(-532.3, -562.79)" d="M 536.5 548.1 L 535.7 549.3000000000001 C 534.9000000000001 550.5000000000001 533.8000000000001 551.4000000000001 532.6 552.1 L 526.1 555.8000000000001 L 527 558.9000000000001 L 527 558.9000000000001 L 530.5 570.4000000000001 C 530.1 570.4000000000001 529.8 570.5000000000001 529.4 570.6000000000001 C 527.3 571.2000000000002 526 573.2000000000002 526.5 575.1000000000001 C 527 576.9000000000001 529.2 577.9000000000001 531.4 577.3000000000002 C 533.4 576.7000000000002 533.9 576.1000000000001 533.6 574.4000000000002 L 533.7 573.4000000000002 L 530.2 560.9000000000002 L 534.6 558.3000000000002 C 536 557.5000000000002 537.2 556.4000000000002 538.1 555.0000000000002 L 538.5 554.4000000000002 L 536.5 548.1 z" stroke-linecap="round" />
</g>
<g transform="matrix(1 0 0 1 573.3 602.79)"  >
<path style="stroke: rgb(61,9,56); stroke-width: 2; stroke-dasharray: none; stroke-linecap: round; stroke-dashoffset: 0; stroke-linejoin: round; stroke-miterlimit: 10; fill: none; fill-rule: nonzero; opacity: 1;" vector-effect="non-scaling-stroke"  transform=" translate(-533.3, -562.79)" d="M 537.5 548.1 L 536.7 549.3000000000001 C 535.9000000000001 550.5000000000001 534.8000000000001 551.4000000000001 533.6 552.1 L 527.1 555.8000000000001 L 528 558.9000000000001 L 528 558.9000000000001 L 531.5 570.4000000000001 C 531.1 570.4000000000001 530.8 570.5000000000001 530.4 570.6000000000001 C 528.3 571.2000000000002 527 573.2000000000002 527.5 575.1000000000001 C 528 576.9000000000001 530.2 577.9000000000001 532.4 577.3000000000002 C 534.4 576.7000000000002 533.6 575.9000000000002 533.3 574.1000000000001 L 533.3 574.1000000000001 L 529.5 561.5000000000001 L 535.6 558.3000000000001 C 537 557.5000000000001 538.2 556.4000000000001 539.1 555.0000000000001 L 539.5 554.4000000000001 L 537.5 548.1 z" stroke-linecap="round" />
</g>
<g transform="matrix(1 0 0 1 248.72 399.95)"  >
<path style="stroke: none; stroke-width: 1; stroke-dasharray: none; stroke-linecap: butt; stroke-dashoffset: 0; stroke-linejoin: miter; stroke-miterlimit: 4; fill: rgb(255,255,255); fill-rule: nonzero; opacity: 1;" vector-effect="non-scaling-stroke"  transform=" translate(-208.73, -359.96)" d="M 262.9 359.2 C 260.9 347.8 250.09999999999997 340.2 238.79999999999998 342.2 C 238.6 342.2 238.39999999999998 342.3 238.29999999999998 342.3 C 233.29999999999998 329.2 219.6 321 205.2 323.5 C 192.79999999999998 325.7 183.5 335.2 181.1 346.8 C 177.6 344.90000000000003 173.5 344.1 169.29999999999998 344.90000000000003 C 159.39999999999998 346.6 152.79999999999998 356.00000000000006 154.49999999999997 365.90000000000003 C 156.19999999999996 375.8 165.59999999999997 382.40000000000003 175.49999999999997 380.70000000000005 C 178.79999999999998 380.1 181.69999999999996 378.70000000000005 184.09999999999997 376.70000000000005 C 186.39999999999998 389.90000000000003 199.09999999999997 398.80000000000007 212.29999999999995 396.50000000000006 C 221.29999999999995 394.90000000000003 228.39999999999995 388.6000000000001 231.19999999999996 380.50000000000006 C 235.39999999999995 383.20000000000005 240.59999999999997 384.40000000000003 245.99999999999997 383.50000000000006 C 257.3 381.3 264.9 370.5 262.9 359.2 z" stroke-linecap="round" />
</g>
<g transform="matrix(1 0 0 1 248.76 415.88)"  >
<path style="stroke: none; stroke-width: 1; stroke-dasharray: none; stroke-linecap: butt; stroke-dashoffset: 0; stroke-linejoin: miter; stroke-miterlimit: 4; fill: rgb(204,255,255); fill-rule: nonzero; opacity: 1;" vector-effect="non-scaling-stroke"  transform=" translate(-208.76, -375.88)" d="M 247.6 374.6 C 242.29999999999998 375.5 237 374.3 232.79999999999998 371.6 C 229.99999999999997 379.70000000000005 222.99999999999997 386 213.89999999999998 387.6 C 200.59999999999997 389.90000000000003 187.99999999999997 381 185.7 367.8 C 183.29999999999998 369.8 180.39999999999998 371.2 177.1 371.8 C 167.2 373.5 157.79999999999998 366.90000000000003 156.1 357 C 156 356.3 155.9 355.6 155.9 355 C 154.4 358.2 153.8 362 154.5 365.8 C 156.2 375.7 165.6 382.3 175.5 380.6 C 178.8 380 181.7 378.6 184.1 376.6 C 186.4 389.8 199.1 398.70000000000005 212.29999999999998 396.40000000000003 C 221.29999999999998 394.8 228.39999999999998 388.50000000000006 231.2 380.40000000000003 C 235.39999999999998 383.1 240.6 384.3 246 383.40000000000003 C 256.3 381.6 263.5 372.50000000000006 263.3 362.3 C 260.5 368.5 254.8 373.3 247.6 374.6 z" stroke-linecap="round" />
</g>
<g transform="matrix(1 0 0 1 291.69 408.95)"  >
<path style="stroke: none; stroke-width: 1; stroke-dasharray: none; stroke-linecap: butt; stroke-dashoffset: 0; stroke-linejoin: miter; stroke-miterlimit: 4; fill: rgb(61,9,56); fill-rule: nonzero; opacity: 0.43;" vector-effect="non-scaling-stroke"  transform=" translate(-251.69, -368.95)" d="M 235.6 392.9 C 237.79999999999998 393.4 240 393.59999999999997 242.29999999999998 393.59999999999997 C 242.29999999999998 393.59999999999997 242.29999999999998 393.59999999999997 242.29999999999998 393.59999999999997 C 244.1 393.59999999999997 245.79999999999998 393.4 247.6 393.09999999999997 C 264.4 390.2 275.7 374.2 272.7 357.4 C 271.4 350.2 267.7 343.9 262.5 339.4 C 249.4 357.9 238.6 377.7 230.2 398.5 C 232.3 396.8 234.1 395 235.6 392.9 z" stroke-linecap="round" />
</g>
<g transform="matrix(1 0 0 1 248.72 399.95)"  >
<path style="stroke: rgb(61,9,56); stroke-width: 4; stroke-dasharray: none; stroke-linecap: round; stroke-dashoffset: 0; stroke-linejoin: round; stroke-miterlimit: 10; fill: none; fill-rule: nonzero; opacity: 1;" vector-effect="non-scaling-stroke"  transform=" translate(-208.73, -359.96)" d="M 262.9 359.2 C 260.9 347.8 250.09999999999997 340.2 238.79999999999998 342.2 C 238.6 342.2 238.39999999999998 342.3 238.29999999999998 342.3 C 233.29999999999998 329.2 219.6 321 205.2 323.5 C 192.79999999999998 325.7 183.5 335.2 181.1 346.8 C 177.6 344.90000000000003 173.5 344.1 169.29999999999998 344.90000000000003 C 159.39999999999998 346.6 152.79999999999998 356.00000000000006 154.49999999999997 365.90000000000003 C 156.19999999999996 375.8 165.59999999999997 382.40000000000003 175.49999999999997 380.70000000000005 C 178.79999999999998 380.1 181.69999999999996 378.70000000000005 184.09999999999997 376.70000000000005 C 186.39999999999998 389.90000000000003 199.09999999999997 398.80000000000007 212.29999999999995 396.50000000000006 C 221.29999999999995 394.90000000000003 228.39999999999995 388.6000000000001 231.19999999999996 380.50000000000006 C 235.39999999999995 383.20000000000005 240.59999999999997 384.40000000000003 245.99999999999997 383.50000000000006 C 257.3 381.3 264.9 370.5 262.9 359.2 z" stroke-linecap="round" />
</g>
</svg>